<svg width="299" height="243" viewBox="0 0 299 243" fill="none" xmlns="http://www.w3.org/2000/svg">
<path d="M130.737 22.016C130.737 22.016 124.578 21.7923 121.291 25.5731C117.194 29.9716 117.199 35.6853 117.199 35.6853C119.388 33.534 121.254 31.207 124.138 31.223C128.702 31.2762 132.185 37.2669 136.012 39.3649C140.459 41.7772 144.806 35.3179 145.023 34.9664L123.321 77.5135H8L29.3786 99H269.611L291 77.5135H181.451L172.148 28.4539L178.583 22L130.737 22.016Z" fill="white"/>
<path d="M160.095 109L160.117 109.016H138.816L138.832 109H53L74.5247 130.416H117.302L137.941 109.881L112.046 201.034L82.1336 176.273L120.173 214.12L124.719 200.338L147.914 130.432L133.886 199.855L129.196 223.103L149.194 243L169.855 222.407L165.303 198.199L152.524 130.432L173.846 197.753L178.803 213.499L216.522 175.976L185.787 197.132L161.008 109.908L181.625 130.416H225.475L247 109H160.095Z" fill="white"/>
<path d="M216 153.469L223.501 161H291.833L299 153.846L257.32 112L216 153.469Z" fill="white"/>
<path d="M232 169L241.383 179H273.622L283 169H232Z" fill="white"/>
<path d="M0 153.846L7.13017 161H75.4569L83 153.469L41.6747 112L0 153.846Z" fill="white"/>
<path d="M16 169L25.3782 179H57.6166L67 169H16Z" fill="white"/>
<path d="M157.142 10.8282L149.492 3.20539L141.858 10.8336L131 0L132.863 16H166.137L168 0L157.142 10.8282Z" fill="white"/>
</svg>
