<svg width="20" height="20" viewBox="0 0 20 20" fill="none" xmlns="http://www.w3.org/2000/svg">
<path fill-rule="evenodd" clip-rule="evenodd" d="M8.89574 2.00629e-08C7.47711 0.000120879 6.07907 0.339495 4.81827 0.989808C3.55748 1.64012 2.47047 2.58251 1.64796 3.73836C0.825444 4.89421 0.291268 6.23 0.0899962 7.63429C-0.111276 9.03857 0.0261937 10.4706 0.490935 11.811C0.955677 13.1513 1.73421 14.3611 2.76159 15.3394C3.78897 16.3176 5.0354 17.036 6.39689 17.4346C7.75837 17.8332 9.19544 17.9004 10.5882 17.6307C11.9809 17.3609 13.289 16.762 14.4032 15.8839L18.2256 19.7063C18.423 19.8969 18.6873 20.0024 18.9618 20C19.2362 19.9976 19.4987 19.8876 19.6928 19.6935C19.8868 19.4995 19.9969 19.2369 19.9993 18.9625C20.0017 18.6881 19.8962 18.4237 19.7055 18.2263L15.8832 14.404C16.9172 13.0921 17.5611 11.5156 17.7411 9.85494C17.921 8.19425 17.6298 6.51644 16.9007 5.01354C16.1717 3.51063 15.0342 2.24334 13.6185 1.3567C12.2029 0.470056 10.5662 -0.000112141 8.89574 2.00629e-08ZM2.09254 8.8965C2.09254 7.09218 2.8093 5.36175 4.08515 4.08591C5.361 2.81006 7.09142 2.09329 8.89574 2.09329C10.7001 2.09329 12.4305 2.81006 13.7063 4.08591C14.9822 5.36175 15.6989 7.09218 15.6989 8.8965C15.6989 10.7008 14.9822 12.4312 13.7063 13.7071C12.4305 14.9829 10.7001 15.6997 8.89574 15.6997C7.09142 15.6997 5.361 14.9829 4.08515 13.7071C2.8093 12.4312 2.09254 10.7008 2.09254 8.8965Z" fill="black" fill-opacity="0.5"/>
</svg>
