<svg width="22" height="22" viewBox="0 0 22 22" fill="none" xmlns="http://www.w3.org/2000/svg">
<path d="M15.8493 8.5342C15.7645 8.44922 15.6637 8.3818 15.5528 8.3358C15.442 8.2898 15.3231 8.26612 15.203 8.26612C15.083 8.26612 14.9641 8.2898 14.8532 8.3358C14.7423 8.3818 14.6416 8.44922 14.5568 8.5342L11.0001 12.0909L7.44343 8.5342C7.27204 8.3628 7.03957 8.26651 6.79718 8.26651C6.55479 8.26651 6.32233 8.3628 6.15093 8.5342C5.97954 8.70559 5.88325 8.93806 5.88325 9.18045C5.88325 9.42284 5.97954 9.6553 6.15093 9.8267L10.3584 14.0342C10.4432 14.1192 10.544 14.1866 10.6549 14.2326C10.7658 14.2786 10.8846 14.3023 11.0047 14.3023C11.1247 14.3023 11.2436 14.2786 11.3545 14.2326C11.4654 14.1866 11.5661 14.1192 11.6509 14.0342L15.8584 9.8267C16.2068 9.47837 16.2068 8.8917 15.8493 8.5342Z" fill="#F9F9F9"/>
</svg>
