<svg width="37" height="28" viewBox="0 0 37 28" fill="none" xmlns="http://www.w3.org/2000/svg">
<path d="M13.6368 27.2786C13.2568 27.2786 12.8767 27.1386 12.5767 26.8385L0.435057 14.6969C-0.145019 14.1169 -0.145019 13.1567 0.435057 12.5767L12.5767 0.435057C13.1567 -0.145019 14.1169 -0.145019 14.6969 0.435057C15.277 1.01513 15.277 1.97526 14.6969 2.55534L3.61548 13.6368L14.6969 24.7183C15.277 25.2983 15.277 26.2585 14.6969 26.8385C14.4169 27.1386 14.0169 27.2786 13.6368 27.2786Z" fill="white"/>
<path d="M35.4996 15.1368H1.8352C1.01509 15.1368 0.335005 14.4567 0.335005 13.6366C0.335005 12.8165 1.01509 12.1364 1.8352 12.1364H35.4996C36.3198 12.1364 36.9998 12.8165 36.9998 13.6366C36.9998 14.4567 36.3198 15.1368 35.4996 15.1368Z" fill="white"/>
</svg>
