<svg width="28" height="23" viewBox="0 0 28 23" fill="none" xmlns="http://www.w3.org/2000/svg">
<path d="M12.6716 2.79319L7.69831 12.0584L4.56449 12.9441C4.92783 12.2628 5.33659 11.7178 5.79077 11.309C6.24494 10.8548 6.76725 10.6278 7.35768 10.6278C8.6748 10.6278 9.85566 11.1728 10.9003 12.2628C11.9903 13.3074 12.5353 14.6699 12.5353 16.3504C12.5353 18.1217 11.9222 19.6432 10.6959 20.9149C9.51502 22.1866 8.03895 22.8224 6.26765 22.8224C4.5872 22.8224 3.11112 22.2093 1.83942 20.983C0.61314 19.7113 0 18.1671 0 16.3504C0 15.6237 0.136253 14.7835 0.40876 13.8297C0.726685 12.8759 1.29441 11.627 2.11193 10.0828L7.56206 0L12.6716 2.79319ZM28.0001 2.79319L23.0268 12.0584L19.9611 12.9441C20.279 12.2628 20.6651 11.7178 21.1193 11.309C21.6189 10.8548 22.1412 10.6278 22.6862 10.6278C24.0033 10.6278 25.2069 11.1728 26.2969 12.2628C27.3869 13.3074 27.9319 14.6699 27.9319 16.3504C27.9319 18.1217 27.3188 19.6432 26.0925 20.9149C24.9117 22.1866 23.4356 22.8224 21.6643 22.8224C19.9838 22.8224 18.5077 22.2093 17.236 20.983C16.0098 19.7113 15.3966 18.1671 15.3966 16.3504C15.3966 15.6237 15.5329 14.7835 15.8054 13.8297C16.0779 12.8759 16.6229 11.627 17.4404 10.0828L22.9587 0L28.0001 2.79319Z" fill="#845F38"/>
</svg>
