<svg width="1440" height="681" viewBox="0 0 1440 681" fill="none" xmlns="http://www.w3.org/2000/svg">
<g opacity="0.15">
<mask id="mask0_116_21416" style="mask-type:luminance" maskUnits="userSpaceOnUse" x="0" y="0" width="1500" height="800">
<path d="M1440 0H0V681H1440V0Z" fill="white"/>
</mask>
<g mask="url(#mask0_116_21416)">
<path d="M819.283 -71.2332C807.706 -36.0255 793.133 -1.30807 775.699 32.6738C767.942 47.7784 759.341 63.0737 744.384 75.141C706.118 105.99 639.168 106.957 582.029 100.243C529.402 94.0728 477.811 83.4356 428.717 68.6442C380.064 53.9891 333.005 35.0709 280.858 28.8602C228.73 22.6495 168.077 32.633 139.987 64.4084C123.283 83.313 120.615 107.23 127.143 129.063C133.671 150.882 148.647 170.971 165.255 189.917C184.282 211.613 206.362 233.569 209.223 259.038C212.179 285.407 191.635 312.361 158.938 325.054C112.416 343.114 55.4497 331.783 3.28331 325.041C-62.9951 316.46 -134.093 316.542 -194.649 337.489C-255.206 358.451 -302.016 403.982 -295.795 451.584" stroke="white" stroke-miterlimit="10"/>
<path d="M807.533 -78.356C796.243 -43.9382 781.92 -10.0244 764.717 23.1267C757.056 37.8635 748.57 52.7774 733.978 64.5859C696.71 94.7951 631.93 96.4567 576.365 90.7091C563.174 89.3471 550.042 87.6855 536.986 85.7514C499.411 80.1672 462.528 72.2404 426.912 62.0799C379.373 48.5007 333.293 30.7811 282.336 25.0879C231.398 19.3812 173.933 29.8004 144.269 59.3286C133.114 70.4425 125.491 82.4145 122.266 95.3399C120.058 104.138 119.578 113.277 120.883 122.362C121.478 126.516 122.4 130.67 123.667 134.838C128.774 151.509 139.622 167.826 151.507 183.339C152.678 184.878 153.869 186.403 155.078 187.942C173.664 211.75 193.286 236.089 194.362 262.702C195.398 288.335 176.314 314.418 144.461 326.921C99.1489 344.722 43.8721 334.521 -6.62392 328.841C-10.5983 328.392 -14.5919 327.983 -18.6047 327.602C-79.1999 321.854 -142.56 324.197 -196.627 344.027C-254.266 365.166 -298.291 409.717 -291.322 455.97" stroke="#FEFEFE" stroke-miterlimit="10"/>
<path d="M795.783 -85.4795C784.8 -51.8517 770.707 -18.7279 753.715 13.5924C746.151 27.9615 737.779 42.4804 723.571 54.0574C687.283 83.6264 624.672 85.9963 570.682 81.1885C557.856 80.0444 545.088 78.6279 532.397 76.939C495.84 72.0494 459.898 64.8717 425.107 55.5284C378.682 43.0388 333.581 26.5178 283.834 21.3286C234.106 16.1257 179.463 26.9264 148.57 54.2753C136.109 65.3075 125.914 76.1763 120.48 88.7203C116.775 97.2737 114.682 106.358 114.624 115.688C114.586 119.951 114.951 124.296 115.757 128.695C118.983 146.319 129.773 164.148 141.427 180.982C142.579 182.657 143.751 184.319 144.922 185.981C163.066 211.9 180.288 238.513 179.539 266.393C178.867 291.25 161.05 316.488 130.042 328.827C85.9202 346.384 32.333 337.313 -16.4542 332.682C-20.2942 332.314 -24.1534 331.987 -28.0318 331.688C-86.5342 327.193 -147.187 330.584 -198.509 350.592C-253.229 371.921 -294.489 415.478 -286.752 460.369" stroke="#FEFEFE" stroke-miterlimit="10"/>
<path d="M784.032 -92.6025C773.338 -59.7511 759.495 -27.4445 742.714 4.0586C735.264 18.06 726.97 32.1975 713.146 43.5157C677.837 72.4446 617.414 75.5091 565.018 71.6683C552.576 70.7557 540.173 69.5708 527.827 68.1135C492.288 63.9185 457.267 57.5035 423.322 48.9637C378.01 37.5638 333.888 22.2277 285.331 17.5424C236.794 12.8571 184.666 23.971 152.851 49.1953C139.008 60.173 126.336 69.9113 118.695 82.0876C113.472 90.3822 109.767 99.4258 108.365 109.001C107.712 113.386 107.501 117.895 107.827 122.539C109.152 141.117 119.885 160.443 131.328 178.626C132.461 180.424 133.594 182.222 134.746 184.02C152.467 212.05 167.328 240.842 164.679 270.071C162.49 294.11 145.728 318.558 115.565 330.707C72.6529 348.004 20.7361 340.064 -26.3615 336.496C-30.0671 336.21 -33.7919 335.964 -37.5359 335.746C-93.9647 332.491 -151.891 336.945 -200.486 357.144C-252.307 378.663 -290.765 421.226 -282.259 464.769" stroke="#FDFDFD" stroke-miterlimit="10"/>
<path d="M772.262 -99.7258C761.875 -67.6643 748.282 -36.1613 731.712 -5.48906C724.358 8.14456 716.179 21.8871 702.739 32.9738C668.41 61.2762 610.138 65.0353 559.334 62.1342C547.258 61.4532 535.219 60.4998 523.238 59.2877C488.717 55.7873 454.637 50.1214 421.536 42.3989C377.338 32.0749 334.195 17.951 286.829 13.7696C239.482 9.58828 189.581 20.9337 157.152 44.115C141.83 55.0655 126.758 63.6597 116.928 75.4546C110.189 83.4904 104.89 92.4932 102.125 102.3C100.838 106.794 100.07 111.48 99.9168 116.369C99.36 135.9 110.016 156.739 121.229 176.243C122.342 178.177 123.456 180.111 124.57 182.045C141.85 212.199 154.445 243.103 149.818 273.748C146.323 296.943 130.406 320.615 101.088 332.587C59.3856 349.625 9.15839 342.815 -36.2688 340.309C-39.84 340.118 -43.4304 339.941 -47.04 339.805C-101.395 337.803 -156.595 343.319 -202.464 363.681C-251.366 385.378 -287.04 426.96 -277.786 469.154" stroke="#FDFDFD" stroke-miterlimit="10"/>
<path d="M760.512 -106.849C750.413 -75.5776 737.069 -44.8781 720.73 -15.0231C713.472 -1.75721 705.389 11.604 692.333 22.4319C658.983 50.0941 602.88 54.5615 553.652 52.6138C541.959 52.1507 530.285 51.4425 518.65 50.4619C485.146 47.6561 451.987 42.7529 419.731 35.834C376.647 26.5996 334.484 13.6606 288.308 9.99685C242.17 6.31945 194.208 17.7875 161.434 39.0483C144.576 49.9852 127.162 57.4081 115.123 68.8352C106.887 76.6259 99.9555 85.5606 95.8467 95.6258C93.9459 100.229 92.6019 105.092 91.9683 110.226C89.5299 130.711 100.128 153.048 111.111 173.9C112.205 175.957 113.28 178.027 114.375 180.097C131.213 212.363 141.639 245.337 134.957 277.439C130.311 299.762 115.085 322.698 86.6307 334.48C46.1379 351.26 -2.41891 345.58 -46.1373 344.136C-49.5933 344.027 -53.0301 343.946 -56.4861 343.891C-108.749 343.128 -161.241 349.707 -204.384 370.246C-250.368 392.133 -283.277 432.721 -273.254 473.567" stroke="#FCFCFC" stroke-miterlimit="10"/>
<path d="M748.762 -113.972C738.97 -83.4909 725.856 -53.5813 709.728 -24.5571C702.567 -11.659 694.599 1.32089 681.927 11.9036C649.555 38.9257 595.642 44.0877 547.987 43.0934C536.659 42.8619 525.351 42.3716 514.08 41.6497C481.594 39.5386 449.376 35.3845 417.946 29.2828C375.975 21.138 334.791 9.39755 289.805 6.23771C244.858 3.06425 198.643 14.5595 165.715 33.9953C147.226 44.9049 127.584 51.1701 113.338 62.2295C103.584 69.7478 95.0403 78.6416 89.5683 88.9384C87.0339 93.6645 85.1331 98.6903 84.0387 104.07C79.7187 125.508 90.2403 149.343 101.011 171.53C102.087 173.723 103.143 175.929 104.199 178.122C120.615 212.499 128.947 247.502 120.096 281.117C114.451 302.568 99.7635 324.769 72.1539 336.373C32.8515 352.908 -14.0157 348.345 -56.0445 347.964C-59.3661 347.936 -62.6685 347.936 -65.9901 347.964C-116.179 348.454 -165.945 356.081 -206.342 376.797C-249.408 398.875 -279.533 438.468 -268.742 477.966" stroke="#FBFBFB" stroke-miterlimit="10"/>
<path d="M737.012 -121.096C727.508 -91.4043 714.644 -62.2984 698.746 -34.105C691.68 -21.5746 683.828 -8.98973 671.52 1.34785C640.148 27.7298 588.384 33.6 542.324 33.5455C531.38 33.5455 520.436 33.2867 509.511 32.7964C478.042 31.3799 446.765 27.9886 416.16 22.6904C375.303 15.6216 335.098 5.07973 291.303 2.43745C247.565 -0.232072 197.933 7.32703 170.016 28.8875C147.437 37.0459 128.007 44.891 111.552 55.5691C100.301 62.8421 90.1444 71.6952 83.3284 82.237C80.1796 87.0721 77.7028 92.275 76.1284 97.9C69.9268 120.291 80.3715 145.638 90.9123 169.16C91.9491 171.489 92.9859 173.818 94.0227 176.147C109.997 212.635 116.372 249.654 105.236 284.78C98.7076 305.373 84.4419 326.811 57.6963 338.239C19.6035 354.514 -25.5933 351.082 -65.9325 351.763C-69.1197 351.818 -72.2877 351.899 -75.4749 352.008C-123.571 353.738 -170.649 362.428 -208.3 383.321C-248.448 405.576 -275.808 444.189 -264.249 482.338" stroke="#FBFBFB" stroke-miterlimit="10"/>
<path d="M725.261 -128.219C716.064 -99.3171 703.431 -71.0147 687.744 -43.6385C680.775 -31.4759 673.018 -19.2724 661.114 -9.17994C630.72 16.5619 581.127 23.1267 536.64 24.0392C526.061 24.2572 515.482 24.2435 504.922 23.9984C474.471 23.2765 444.115 20.6342 414.355 16.1533C374.611 10.1741 335.386 0.830768 292.781 -1.32119C250.234 -3.47315 202.176 3.74544 174.279 23.8349C149.895 31.5439 128.41 38.6535 109.747 48.9502C96.9794 55.9781 85.229 64.7767 77.0498 75.5501C73.2674 80.4941 70.2338 85.8877 68.1794 91.7443C60.0962 115.089 70.4834 141.934 80.7938 166.79C81.8114 169.242 82.829 171.707 83.8274 174.186C99.3602 212.799 103.891 251.807 90.3554 288.472C83.0786 308.193 69.101 328.896 43.2002 340.132C6.31703 356.149 -37.1902 353.848 -75.8398 355.591C-78.8926 355.727 -81.9262 355.891 -84.979 356.095C-131.001 359.078 -175.353 368.816 -210.278 389.9C-247.526 412.345 -272.083 449.964 -259.776 486.765" stroke="#FAFAFA" stroke-miterlimit="10"/>
<path d="M713.491 -135.329C704.602 -107.217 692.199 -79.7182 676.743 -53.1592C669.869 -41.3506 662.227 -29.5421 650.688 -19.7084C621.274 5.39323 573.869 12.6663 530.976 14.5186C520.781 14.9681 510.567 15.186 500.352 15.1724C470.919 15.1451 441.504 13.2656 412.57 9.60181C373.939 4.71223 335.693 -3.44615 294.279 -5.08055C252.922 -6.72857 206.458 0.135908 178.579 18.7817C152.391 26.0548 128.832 32.4153 107.981 42.3443C93.7154 49.1134 80.333 57.8575 70.8098 68.8897C66.413 73.9563 62.8034 79.5133 60.2882 85.615C50.3234 109.913 60.6338 138.256 70.733 164.461C71.7314 167.049 72.7298 169.65 73.6898 172.252C88.8002 212.976 91.6226 253.999 75.5522 292.176C67.6034 311.053 53.837 330.979 28.781 342.039C-6.89263 357.797 -48.7294 356.626 -85.6894 359.432C-88.6078 359.649 -91.507 359.895 -94.4254 360.181C-138.355 364.403 -180 375.203 -212.198 396.464C-246.528 419.087 -268.301 455.711 -255.225 491.178" stroke="#F9F9F9" stroke-miterlimit="10"/>
<path d="M701.741 -142.452C693.139 -115.117 680.986 -88.4214 665.741 -62.7068C658.963 -51.266 651.437 -39.8524 640.282 -30.2503C611.847 -5.77521 566.611 2.17887 525.293 4.98459C515.463 5.65197 505.613 6.11505 495.763 6.34659C467.347 7.01397 438.874 5.88351 410.765 3.03693C373.267 -0.776666 335.981 -7.72287 295.757 -8.85333C255.61 -9.99741 210.701 -3.47342 182.861 13.7014C154.867 20.5386 129.255 26.1637 106.176 35.7113C90.3938 42.2217 75.4178 50.9249 64.5314 62.1886C59.501 67.3642 55.3346 73.0982 52.3394 79.4451C40.493 104.697 50.7266 134.552 60.5954 162.078C61.5746 164.802 62.5346 167.526 63.4754 170.263C78.1442 213.098 79.4114 256.165 60.653 295.84C52.1282 313.873 38.477 333.036 14.285 343.918C-20.1982 359.431 -60.3454 359.391 -95.6158 363.245C-98.3998 363.545 -101.165 363.885 -103.949 364.239C-145.805 369.715 -184.723 381.578 -214.176 403.002C-245.587 425.815 -264.595 461.445 -250.752 495.563" stroke="#F9F9F9" stroke-miterlimit="10"/>
<path d="M689.991 -149.575C681.696 -123.03 669.773 -97.1382 654.759 -72.2408C648.077 -61.1678 640.647 -50.1356 629.875 -40.7922C602.419 -16.9572 559.354 -8.29492 519.61 -4.5358C510.163 -3.63688 500.679 -2.94226 491.155 -2.47918C463.757 -1.10356 436.205 -1.49854 408.941 -3.52792C372.557 -6.25192 336.25 -12.0132 297.216 -12.6261C258.279 -13.2662 214.963 -7.09636 187.143 8.63474C157.344 15.0225 129.658 19.9121 104.391 29.092C87.0914 35.3572 70.5026 44.0059 58.2722 55.5148C52.6274 60.813 47.885 66.7104 44.4098 73.3025C30.6818 99.5074 40.8578 130.861 50.4962 159.735C51.4562 162.582 52.397 165.455 53.2994 168.329C67.5266 213.275 67.3922 258.426 45.7922 299.544C36.749 316.76 23.1554 335.12 -0.191812 345.825C-33.4654 361.08 -71.923 362.169 -105.504 367.086C-108.153 367.481 -110.784 367.89 -113.414 368.339C-153.177 375.054 -189.389 387.979 -216.115 409.58C-244.608 432.585 -260.832 467.22 -246.24 499.99" stroke="#F8F8F8" stroke-miterlimit="10"/>
<path d="M678.24 -156.698C670.234 -130.943 658.56 -105.855 643.757 -81.7746C637.171 -71.0693 629.856 -60.4321 619.469 -51.3203C592.992 -28.1254 552.096 -18.7549 513.946 -14.056C504.864 -12.9255 495.744 -12.013 486.586 -11.2911C460.205 -9.22087 433.594 -8.85312 407.155 -10.0789C371.885 -11.7133 336.557 -16.276 298.714 -16.385C260.967 -16.5212 219.207 -10.6918 191.405 3.58194C159.802 9.53389 130.042 13.6744 102.567 22.4865C83.7698 28.4929 65.5682 37.1008 51.9746 48.8548C45.6962 54.262 40.397 60.3365 36.461 67.1737C20.8514 94.332 30.9506 127.197 40.3778 157.393C41.3186 160.375 42.221 163.372 43.1042 166.382C56.909 213.453 55.5266 260.728 30.9314 303.249C21.4466 319.634 7.85301 337.177 -14.6494 347.705C-46.7134 362.701 -83.5006 364.921 -115.392 370.9C-117.907 371.376 -120.403 371.867 -122.899 372.398C-160.589 380.366 -194.073 394.34 -218.073 416.118C-243.648 439.299 -257.107 472.954 -241.728 504.362" stroke="#F8F8F8" stroke-miterlimit="10"/>
<path d="M666.49 -163.822C658.791 -138.856 647.347 -114.572 632.775 -91.3223C626.285 -80.9847 619.066 -70.7288 609.063 -61.8758C583.584 -39.3211 544.839 -29.2559 508.282 -23.59C499.584 -22.2416 490.829 -21.0839 482.016 -20.1305C456.653 -17.3657 430.963 -16.2488 405.37 -16.6574C371.213 -17.2159 336.864 -20.58 300.211 -20.185C263.655 -19.8037 226.195 -10.7327 195.706 -1.52561C164.141 8.00839 130.483 7.39548 100.8 15.8126C80.4865 21.5603 60.6721 30.1136 45.7345 42.1129C38.8417 47.629 32.9665 53.8942 28.5505 60.963C11.0593 89.0746 21.0817 123.438 30.2785 154.968C31.1809 158.087 32.0833 161.22 32.9281 164.352C46.2913 213.534 43.8529 263.016 16.0705 306.872C6.16334 322.508 -7.48786 339.22 -29.1263 349.557C-59.9807 364.294 -95.0975 367.644 -125.28 374.686C-127.661 375.244 -130.022 375.816 -132.384 376.429C-168 385.636 -198.758 400.673 -220.032 422.628C-242.707 446 -253.363 478.661 -237.235 508.72" stroke="#F7F7F7" stroke-miterlimit="10"/>
<path d="M654.72 -170.945C647.309 -146.77 636.134 -123.289 621.754 -100.857C615.36 -90.8867 608.256 -81.0122 598.637 -72.4044C574.138 -50.4762 537.562 -39.7164 502.579 -33.1107C494.266 -31.5307 485.856 -30.1415 477.408 -28.9429C453.062 -25.4835 428.314 -23.6039 403.546 -23.2089C370.502 -22.6777 337.133 -24.8433 301.67 -23.9444C266.323 -23.0591 229.92 -14.6147 199.968 -6.57889C166.387 2.43755 130.906 1.15727 99.0145 9.20669C77.2033 14.7092 55.7761 23.208 39.4753 35.4524C31.9489 41.0911 25.5169 47.5197 20.6209 54.8337C1.22887 83.8988 11.2129 119.76 20.1793 152.639C21.0625 155.88 21.9265 159.149 22.7521 162.432C35.6737 213.725 32.3713 265.494 1.20967 310.59C-9.08153 325.477 -22.8095 341.33 -43.6031 351.491C-73.2671 365.983 -106.675 370.45 -135.187 378.554C-137.434 379.194 -139.661 379.861 -141.888 380.542C-175.411 391.003 -203.482 407.088 -221.99 429.234C-241.747 452.797 -249.619 484.463 -232.742 513.174" stroke="#F6F6F6" stroke-miterlimit="10"/>
<path d="M642.97 -178.068C635.866 -154.683 624.922 -131.992 610.771 -110.39C604.474 -100.788 597.485 -91.3087 588.231 -82.946C564.711 -61.658 530.304 -50.1899 496.915 -42.6308C488.967 -40.8194 480.941 -39.1986 472.839 -37.7685C449.511 -33.6144 425.703 -30.9858 401.76 -29.7736C369.831 -28.1528 337.44 -29.1334 303.168 -27.7169C269.011 -26.3277 233.722 -18.5779 204.25 -11.6453C168.576 -3.25542 131.29 -5.09412 97.1906 2.58756C73.901 7.83126 50.861 16.2756 33.2162 28.7652C25.0754 34.5128 18.0674 41.1185 12.6914 48.6776C-8.58217 78.6961 1.32503 116.069 10.0802 150.269C10.9442 153.647 11.789 157.038 12.5762 160.457C25.0754 213.861 21.0818 268.028 -13.6318 314.268C-24.2686 328.419 -38.1118 343.401 -58.0606 353.371C-86.515 367.604 -118.253 373.201 -145.075 382.368C-147.187 383.089 -149.28 383.839 -151.373 384.615C-182.822 396.315 -208.166 413.462 -223.949 435.785C-240.787 459.525 -245.894 490.211 -228.23 517.573" stroke="#F6F6F6" stroke-miterlimit="10"/>
<path d="M631.219 -185.191C624.423 -162.596 613.709 -140.708 599.77 -119.938C593.568 -110.704 586.675 -101.605 577.824 -93.4879C555.283 -72.84 523.047 -60.6774 491.251 -52.1649C483.687 -50.1355 476.007 -48.2695 468.269 -46.5943C445.959 -41.7456 423.072 -38.3542 399.994 -36.3384C369.178 -33.6417 337.786 -33.4101 304.685 -31.4897C271.718 -29.5965 237.562 -22.5958 208.57 -16.7256C170.803 -9.07118 131.731 -11.3457 95.4433 -4.04541C70.5985 0.939512 45.9457 9.35668 26.9377 22.0778C18.1633 27.9344 10.5985 34.7171 4.7617 42.5214C-18.3935 73.4796 -8.5631 112.365 -0.019097 147.913C0.825703 151.427 1.63209 154.954 2.40009 158.496C14.4577 214.024 10.0033 270.697 -28.4927 317.945C-39.4559 331.402 -53.4335 345.457 -72.5183 355.25C-99.7631 369.224 -129.83 375.953 -154.944 386.181C-156.922 386.985 -158.88 387.816 -160.838 388.674C-190.195 401.626 -212.832 419.823 -225.888 442.323C-239.808 466.253 -242.131 495.945 -223.718 521.959" stroke="#F5F5F5" stroke-miterlimit="10"/>
<path d="M619.469 -192.315C612.96 -170.495 602.496 -149.425 588.787 -129.472C582.701 -120.605 575.904 -111.889 567.418 -104.03C545.856 -84.0221 515.808 -71.1512 485.568 -61.6989C478.368 -59.438 471.072 -57.3541 463.68 -55.4337C442.387 -49.8903 420.442 -45.7499 398.189 -42.9033C368.486 -39.1169 338.074 -37.7004 306.163 -35.2625C274.406 -32.8653 241.402 -26.6546 212.851 -21.7923C173.011 -15.0231 132.134 -17.5973 93.6384 -10.6647C67.296 -5.93861 41.0304 2.42408 20.6784 15.3903C11.2896 21.3695 3.14884 28.3157 -3.16796 36.3651C-28.2048 68.2904 -18.4512 108.674 -10.1376 145.543C-9.31195 149.18 -8.52475 152.843 -7.79515 156.521C3.84005 214.161 -0.902348 273.489 -43.3728 321.622C-54.6432 334.398 -68.7744 347.528 -87.0144 357.13C-113.069 370.859 -141.427 378.704 -164.87 389.995C-166.714 390.88 -168.538 391.793 -170.342 392.732C-197.626 406.924 -217.536 426.197 -227.866 448.86C-238.867 472.982 -238.426 501.679 -219.245 526.345" stroke="#F4F4F4" stroke-miterlimit="10"/>
<path d="M607.719 -199.438C601.517 -178.409 591.283 -158.142 577.786 -139.02C571.795 -130.521 565.095 -122.199 557.011 -114.572C536.429 -95.2041 508.551 -81.6386 479.904 -71.2193C473.088 -68.7405 466.138 -66.4115 459.111 -64.2459C438.835 -58.0079 417.831 -53.1047 396.403 -49.4546C367.815 -44.5786 338.381 -41.9636 307.661 -39.0353C277.095 -36.1206 245.338 -30.7543 217.133 -26.859C175.239 -21.0841 132.557 -23.849 91.853 -17.2977C64.013 -12.8168 36.1346 -4.50856 14.4193 8.70284C4.39695 14.791 -4.30064 21.9143 -11.0974 30.2088C-38.0158 63.0739 -28.3198 104.969 -20.2366 143.187C-19.4302 146.959 -18.6814 150.759 -17.9518 154.573C-6.75824 214.324 -11.539 276.472 -58.195 325.313C-69.7918 337.449 -84.0382 349.598 -101.453 359.036C-126.297 372.507 -152.985 381.496 -174.739 393.836C-176.448 394.816 -178.137 395.81 -179.808 396.832C-204.998 412.277 -222.201 432.598 -229.785 455.439C-237.888 479.737 -234.643 507.454 -214.694 530.771" stroke="#F4F4F4" stroke-miterlimit="10"/>
<path d="M595.949 -206.548C590.035 -186.308 580.051 -166.832 566.784 -148.54C560.89 -140.409 554.304 -132.468 546.586 -125.1C527.002 -106.359 501.274 -92.0987 474.221 -80.7397C467.77 -78.0293 461.203 -75.4687 454.522 -73.0716C435.264 -66.139 415.181 -60.4867 394.598 -56.0194C367.123 -50.0674 338.669 -46.2538 309.139 -42.808C279.782 -39.3893 249.331 -34.8811 221.414 -31.9392C177.485 -27.3084 132.96 -30.1005 90.0673 -23.9306C60.7105 -19.6948 31.2193 -11.4275 8.16009 2.01545C-2.47671 8.22618 -11.7503 15.5265 -19.0079 24.0526C-47.8079 57.8711 -38.1887 101.264 -30.3359 140.817C-29.5679 144.726 -28.8191 148.648 -28.1279 152.598C-17.3759 214.46 -22.0031 279.591 -73.0559 328.991C-84.9599 340.513 -99.3599 351.668 -115.91 360.916C-139.546 374.128 -164.563 384.247 -184.608 397.649C-186.182 398.712 -187.757 399.788 -189.274 400.891C-212.39 417.575 -226.867 438.959 -231.725 461.977C-236.909 486.465 -230.88 513.174 -210.182 535.157" stroke="#F3F3F3" stroke-miterlimit="10"/>
<path d="M584.199 -213.671C578.592 -194.222 568.839 -175.549 555.783 -158.074C549.984 -150.311 543.514 -142.765 536.179 -135.628C517.575 -117.541 494.035 -102.573 468.557 -90.2601C462.49 -87.3182 456.269 -84.5261 449.952 -81.8838C431.712 -74.2566 412.57 -67.8552 392.813 -62.5706C366.451 -55.5291 338.976 -50.5169 310.637 -46.5671C282.471 -42.6446 253.402 -39.0216 225.715 -36.9923C179.789 -33.6281 133.402 -36.3385 88.2818 -30.5364C57.4082 -26.573 26.3042 -18.3465 1.901 -4.65839C-9.3694 1.64767 -19.1998 9.12504 -26.9374 17.8963C-57.619 52.6682 -48.0766 97.5733 -40.435 138.461C-39.6862 142.492 -38.9758 146.551 -38.3038 150.637C-27.9742 214.624 -32.275 282.914 -87.9166 332.668C-100.166 343.619 -114.681 353.725 -130.387 362.796C-152.813 375.748 -176.141 386.998 -194.515 401.463C-195.955 402.607 -197.395 403.765 -198.777 404.949C-219.801 422.887 -231.571 445.319 -233.702 468.528C-235.968 493.207 -227.174 518.922 -205.709 539.556" stroke="#F3F3F3" stroke-miterlimit="10"/>
<path d="M572.448 -220.794C557.357 -167.771 508.416 -121.15 445.363 -90.7093C382.311 -60.2686 306.125 -45.2185 229.997 -42.0723C182.151 -40.0974 133.805 -42.6035 86.4962 -37.1691C39.1682 -31.7347 -8.85097 -16.8072 -34.867 11.7403C-67.4302 47.4656 -57.9454 93.8689 -50.5342 136.091C-38.3422 205.526 -38.515 283.255 -102.777 336.346C-134.784 362.796 -180.057 380.475 -208.262 409.022C-247.353 448.588 -244.32 506.541 -201.197 543.942" stroke="#F2F2F2" stroke-miterlimit="10"/>
<path d="M172.704 688.859C202.56 659.549 234.893 631.519 269.472 604.946C284.851 593.138 301.094 581.384 321.485 574.356C373.574 556.377 435.84 573.824 484.915 595.671C530.112 615.788 571.91 639.718 609.139 666.808C646.042 693.653 679.162 723.999 723.859 744.006C768.576 764.014 829.939 771.41 873.139 749.808C898.848 736.951 914.323 715.609 920.179 693.694C926.035 671.766 923.155 649.143 918.144 627.12C912.403 601.895 903.974 575.595 915.206 551.324C926.822 526.195 960.442 506.95 997.517 504.199C1050.26 500.29 1096.65 526.331 1141.09 546.857C1197.56 572.926 1263.19 592.334 1330.46 589.583C1397.72 586.845 1465.69 557.657 1485.87 512.044" stroke="white" stroke-miterlimit="10"/>
<path d="M179.655 698.638C208.954 669.805 240.883 642.32 275.079 616.387C290.285 604.865 306.355 593.41 326.381 586.491C366.605 572.599 412.915 579.654 454.426 593.342C465.735 597.06 476.698 601.282 487.085 605.695C531.744 624.695 573.178 647.509 610.272 673.455C647.021 699.169 679.987 728.507 724.243 747.779C749.05 758.58 778.445 765.976 807.379 767.31C832.589 768.468 857.607 764.9 878.535 754.753C882.279 752.941 885.811 750.953 889.133 748.814C909.658 735.589 922.119 716.576 927.571 697.113C929.319 690.861 930.413 684.555 931.008 678.222C932.544 661.701 930.739 644.989 928.071 628.659C923.866 602.74 918.279 576.208 930.912 551.992C943.469 527.939 975.706 509.238 1011.9 506.419C1063.39 502.415 1108.84 526.958 1152.31 546.04C1155.72 547.538 1159.2 549.022 1162.68 550.466C1215.44 572.367 1275.17 587.553 1335.82 584.067C1400.51 580.349 1465.36 551.324 1484.1 506.746" stroke="#FEFEFE" stroke-miterlimit="10"/>
<path d="M186.624 708.431C215.386 680.074 246.874 653.147 280.723 627.841C295.757 616.591 311.674 605.45 331.334 598.64C370.829 584.965 416.218 591.339 457.056 604.129C468.192 607.602 479.002 611.565 489.274 615.719C533.395 633.616 574.483 655.299 611.424 680.101C648.019 704.685 680.87 732.987 724.627 751.552C750.374 762.475 780.538 770.184 810.374 771.845C836.294 773.275 862.234 769.925 883.93 759.71C887.808 757.885 891.494 755.869 894.97 753.676C916.358 740.206 929.126 720.607 935.002 700.531C936.883 694.089 938.112 687.592 938.861 681.095C940.819 664.125 939.744 646.923 938.016 630.197C935.366 603.597 932.544 576.848 946.637 552.645C960.019 529.668 990.97 511.499 1026.28 508.612C1076.52 504.512 1121.03 527.557 1163.52 545.195C1166.86 546.584 1170.26 547.946 1173.66 549.281C1225.17 569.466 1282.96 582.936 1341.22 578.537C1403.31 573.851 1465.08 544.977 1482.37 501.434" stroke="#FEFEFE" stroke-miterlimit="10"/>
<path d="M193.594 718.224C221.818 690.357 252.883 663.975 286.349 639.296C301.229 628.332 316.954 617.49 336.269 610.803C375.053 597.36 419.501 603.039 459.687 614.943C470.669 618.185 481.325 621.876 491.482 625.771C535.066 642.551 575.808 663.103 612.595 686.775C649.037 710.229 681.811 737.482 725.05 755.352C751.757 766.384 782.669 774.42 813.389 776.408C840.019 778.111 866.899 774.964 889.363 764.681C893.395 762.843 897.216 760.8 900.826 758.566C923.059 744.837 936.135 724.666 942.432 703.977C944.448 697.358 945.811 690.67 946.733 683.996C949.114 666.563 948.749 648.898 947.981 631.764C946.867 604.469 946.771 577.556 962.381 553.34C976.493 531.439 1006.25 513.815 1040.7 510.859C1089.7 506.664 1133.26 528.211 1174.77 544.405C1178.04 545.685 1181.34 546.938 1184.68 548.151C1234.96 566.606 1290.82 578.36 1346.63 573.048C1406.13 567.396 1464.79 538.671 1480.65 496.163" stroke="#FDFDFD" stroke-miterlimit="10"/>
<path d="M200.563 728.016C228.231 700.627 258.893 674.789 291.994 650.737C306.701 640.045 322.253 629.53 341.203 622.938C379.258 609.727 422.784 614.712 462.317 625.73C473.127 628.727 483.648 632.159 493.671 635.795C536.717 651.472 577.114 670.894 613.747 693.422C650.016 715.745 682.733 741.922 725.434 759.124C753.101 770.266 784.762 778.615 816.365 780.944C843.706 782.932 871.507 779.99 894.739 769.626C898.906 767.773 902.88 765.703 906.624 763.428C929.722 749.441 943.104 728.684 949.805 707.382C951.936 700.572 953.453 693.708 954.528 686.857C957.351 668.974 957.677 650.832 957.85 633.289C958.272 605.3 960.845 578.251 978.01 553.994C992.775 533.155 1021.44 516.076 1054.98 513.066C1102.73 508.775 1145.36 528.81 1185.89 543.574C1189.08 544.732 1192.3 545.876 1195.55 546.979C1244.58 563.718 1298.52 573.756 1351.91 567.532C1408.82 560.913 1464.38 532.338 1478.8 490.865" stroke="#FDFDFD" stroke-miterlimit="10"/>
<path d="M207.533 737.796C234.663 710.883 264.903 685.604 297.639 662.177C312.173 651.772 327.552 641.557 346.157 635.087C383.501 622.107 426.087 626.398 464.967 636.531C475.603 639.282 485.971 642.456 495.879 645.847C538.387 660.407 578.419 678.712 614.899 700.095C651.015 721.275 683.674 746.376 725.818 762.911C754.445 774.147 786.855 782.837 819.341 785.493C847.392 787.754 876.115 785.03 900.135 774.597C904.455 772.731 908.563 770.633 912.461 768.318C936.423 754.085 950.093 732.743 957.235 710.828C959.501 703.841 961.152 696.772 962.4 689.758C965.645 671.425 966.643 652.793 967.815 634.842C969.696 606.158 974.957 578.973 993.754 554.675C1009.08 534.899 1036.72 518.377 1069.38 515.286C1115.89 510.9 1157.57 529.437 1197.12 542.757C1200.23 543.806 1203.38 544.828 1206.55 545.822C1254.34 560.845 1306.35 569.153 1357.31 562.016C1411.64 554.43 1464.08 525.991 1477.08 485.567" stroke="#FCFCFC" stroke-miterlimit="10"/>
<path d="M214.483 747.588C241.075 721.152 270.893 696.418 303.245 673.632C317.607 663.512 332.813 653.597 351.072 647.236C387.687 634.488 429.351 638.083 467.578 647.318C478.061 649.824 488.275 652.739 498.067 655.871C540.039 669.328 579.725 686.503 616.051 706.728C652.013 726.777 684.634 750.762 726.221 766.67C755.827 778.002 788.986 787.032 822.336 790.015C851.098 792.561 880.743 790.042 905.549 779.527C910.023 777.634 914.266 775.523 918.298 773.167C943.104 758.675 957.101 736.76 964.647 714.233C967.047 707.055 968.832 699.809 970.234 692.618C973.901 673.822 975.61 654.727 977.741 636.367C981.159 606.975 988.954 579.681 1009.46 555.328C1025.24 536.587 1051.97 520.638 1083.76 517.492C1129.02 513.011 1169.76 530.05 1208.33 541.913C1211.37 542.852 1214.44 543.751 1217.51 544.637C1264.07 557.93 1314.14 564.535 1362.68 556.486C1414.43 547.919 1463.77 519.644 1475.33 480.255" stroke="#FBFBFB" stroke-miterlimit="10"/>
<path d="M221.453 757.381C247.488 731.421 276.902 707.246 308.89 685.086C323.098 675.239 338.112 665.637 356.026 659.385C391.93 646.868 432.672 649.769 470.227 658.118C480.538 660.379 490.598 663.049 500.275 665.909C541.709 678.249 581.05 694.293 617.222 713.388C653.03 732.307 685.632 755.175 726.624 770.456C757.229 781.87 791.098 791.254 825.331 794.564C854.803 797.383 885.389 795.068 910.944 784.498C915.552 782.592 919.949 780.453 924.115 778.056C949.786 763.319 964.071 740.805 972.039 717.679C974.573 710.31 976.493 702.887 978.067 695.519C982.176 676.274 984.576 656.688 987.667 637.934C992.621 607.847 1002.89 580.43 1025.16 556.023C1041.33 538.303 1067.23 522.954 1098.12 519.739C1142.11 515.163 1181.93 530.703 1219.53 541.123C1222.48 541.94 1225.48 542.743 1228.47 543.506C1273.79 555.083 1321.94 559.959 1368.04 550.997C1417.19 541.463 1463.44 513.338 1473.54 474.984" stroke="#FBFBFB" stroke-miterlimit="10"/>
<path d="M228.422 767.174C253.92 741.691 282.912 718.06 314.515 696.527C328.55 686.966 343.392 677.663 360.941 671.534C396.134 659.249 435.917 661.51 472.819 668.919C482.957 670.949 492.883 673.346 502.445 675.947C543.341 687.184 582.336 702.097 618.355 720.049C654.01 737.836 686.611 759.56 727.008 774.243C758.592 785.738 793.19 795.463 828.307 799.113C858.49 802.218 889.997 800.107 916.339 789.456C921.101 787.536 925.632 785.357 929.952 782.932C956.467 767.937 971.078 744.851 979.469 721.111C982.138 713.566 984.192 705.952 985.92 698.406C990.451 678.698 993.562 658.65 997.594 639.486C1004.08 608.705 1016.76 581.165 1040.87 556.69C1057.34 539.979 1082.48 525.228 1112.49 521.946C1155.23 517.274 1194.11 531.316 1230.72 540.292C1233.6 541 1236.5 541.681 1239.42 542.335C1283.48 552.196 1329.7 555.356 1373.4 545.481C1419.96 534.98 1463.1 507.005 1471.78 469.686" stroke="#FAFAFA" stroke-miterlimit="10"/>
<path d="M235.392 776.953C260.352 751.947 288.902 728.874 320.16 707.968C334.022 698.679 348.691 689.69 365.894 683.67C400.358 671.616 439.219 673.182 475.469 679.706C485.434 681.491 495.206 683.629 504.653 685.971C545.011 696.091 583.642 709.888 619.526 726.695C655.027 743.339 687.629 763.919 727.411 778.015C760.013 789.579 795.302 799.671 831.322 803.648C862.214 807.026 894.643 805.133 921.773 794.414C926.669 792.48 931.373 790.273 935.808 787.808C963.187 772.554 978.086 748.882 986.899 724.543C989.683 716.807 991.891 709.003 993.792 701.294C998.746 681.136 1002.57 660.597 1007.56 641.039C1015.58 609.563 1030.58 581.874 1056.61 557.371C1073.32 541.64 1097.78 527.53 1126.91 524.18C1168.4 519.413 1206.36 531.943 1241.97 539.488C1244.77 540.088 1247.6 540.646 1250.44 541.191C1293.27 549.336 1337.55 550.766 1378.81 539.979C1422.8 528.511 1462.83 500.685 1470.07 464.401" stroke="#F9F9F9" stroke-miterlimit="10"/>
<path d="M242.362 786.746C266.765 762.216 294.912 739.689 325.805 719.422C339.514 710.419 353.991 701.73 370.848 695.832C404.602 683.997 442.522 684.895 478.119 690.507C487.911 692.06 497.549 693.926 506.88 696.009C546.701 705.026 584.986 717.692 620.717 733.355C656.045 748.869 688.685 768.277 727.853 781.802C761.453 793.42 797.453 803.893 834.355 808.197C865.959 811.861 899.309 810.159 927.207 799.372C932.256 797.424 937.095 795.19 941.664 792.684C969.907 777.185 985.114 752.927 994.33 727.962C997.248 720.049 999.591 712.054 1001.66 704.168C1007.06 683.547 1011.59 662.545 1017.52 642.578C1027.1 610.408 1044.33 582.541 1072.36 558.039C1089.25 543.261 1113.06 529.804 1141.31 526.399C1181.55 521.537 1218.57 532.569 1253.18 538.671C1255.91 539.148 1258.66 539.611 1261.4 540.033C1302.99 546.448 1345.34 546.176 1384.19 534.476C1425.58 522.027 1462.5 494.365 1468.3 459.117" stroke="#F9F9F9" stroke-miterlimit="10"/>
<path d="M249.312 796.539C273.178 772.486 300.903 750.517 331.411 730.863C344.947 722.146 359.251 713.77 375.744 707.968C408.768 696.364 445.767 696.568 480.711 701.294C490.349 702.602 499.834 704.209 509.031 706.048C548.314 713.947 586.253 725.483 621.811 740.002C656.986 754.385 689.645 772.595 728.179 785.575C762.797 797.233 799.507 808.089 837.274 812.733C869.587 816.669 903.879 815.185 932.544 804.316C937.747 802.355 942.72 800.094 947.443 797.533C976.531 781.775 992.045 756.945 1001.7 731.367C1004.76 723.263 1007.23 715.091 1009.46 707.028C1015.28 685.958 1020.52 664.466 1027.41 644.104C1038.53 611.239 1057.94 583.154 1088.01 558.693C1105.04 544.841 1128.25 532.066 1155.61 528.593C1194.61 523.635 1230.68 533.169 1264.32 537.827C1266.97 538.195 1269.64 538.535 1272.31 538.848C1312.65 543.547 1353.08 541.545 1389.48 528.933C1428.29 515.517 1462.12 488.005 1466.48 453.792" stroke="#F8F8F8" stroke-miterlimit="10"/>
<path d="M256.282 806.332C279.591 782.755 306.912 761.345 337.056 742.318C350.419 733.873 364.551 725.81 380.698 720.117C413.011 708.744 449.088 708.254 483.36 712.095C492.826 713.157 502.157 714.506 511.258 716.085C550.003 722.882 587.597 733.287 623.002 746.662C658.023 759.915 690.72 776.94 728.602 789.361C764.256 801.047 801.638 812.311 840.288 817.282C873.312 821.504 908.525 820.224 937.959 809.287C943.296 807.312 948.423 805.024 953.28 802.423C983.232 786.405 999.053 760.991 1009.11 734.813C1012.3 726.532 1014.91 718.156 1017.31 709.929C1023.55 688.41 1029.56 666.454 1037.34 645.67C1050.09 612.124 1071.49 583.754 1103.71 559.387C1120.82 546.448 1143.51 534.381 1169.99 530.84C1207.74 525.787 1242.87 533.823 1275.53 537.037C1278.11 537.296 1280.7 537.514 1283.27 537.718C1322.36 540.701 1360.88 536.982 1394.86 523.458C1431.07 509.075 1461.79 481.712 1464.73 448.534" stroke="#F8F8F8" stroke-miterlimit="10"/>
<path d="M263.251 816.111C286.022 793.011 312.922 772.145 342.682 753.758C355.891 745.6 369.83 737.836 385.632 732.266C417.216 721.125 452.371 719.94 485.99 722.882C495.283 723.699 504.48 724.802 513.446 726.11C551.654 731.803 588.902 741.078 624.154 753.309C659.021 765.431 691.757 781.243 729.005 793.134C765.677 804.847 803.75 816.519 843.283 821.817C877.018 826.312 913.152 825.25 943.373 814.231C948.864 812.243 954.125 809.927 959.117 807.285C989.933 791.023 1006.04 765.022 1016.52 738.231C1019.83 729.76 1022.59 721.206 1025.15 712.803C1031.81 690.82 1038.53 668.388 1047.26 647.209C1061.57 612.968 1084.97 584.271 1119.42 560.055C1136.58 547.987 1158.76 536.655 1184.35 533.06C1220.85 527.911 1255.05 534.449 1286.73 536.22C1289.22 536.356 1291.74 536.478 1294.23 536.56C1332.1 537.813 1368.67 532.379 1400.24 517.942C1433.88 502.592 1461.48 475.379 1462.96 443.236" stroke="#F7F7F7" stroke-miterlimit="10"/>
<path d="M270.221 825.903C292.455 803.281 318.931 782.973 348.327 765.213C361.363 757.327 375.13 749.877 390.567 744.415C421.44 733.505 455.655 731.626 488.602 733.682C497.741 734.254 506.765 735.099 515.616 736.148C553.287 740.724 590.17 748.882 625.287 759.969C660 770.947 692.794 785.547 729.37 796.92C767.079 808.633 805.824 820.728 846.24 826.366C880.666 831.133 917.741 830.275 948.749 819.202C954.375 817.187 959.789 814.858 964.935 812.174C996.595 795.653 1013.03 769.067 1023.94 741.677C1027.37 733.029 1030.27 724.285 1033 715.704C1040.1 693.272 1047.53 670.363 1057.21 648.775C1073.05 613.84 1098.39 584.734 1135.14 560.749C1152.33 549.526 1174.02 538.971 1198.75 535.307C1234 530.063 1267.26 535.089 1297.96 535.43C1300.38 535.457 1302.8 535.457 1305.22 535.43C1341.83 534.967 1376.47 527.816 1405.61 512.466C1436.66 496.15 1461.18 469.087 1461.22 437.979" stroke="#F6F6F6" stroke-miterlimit="10"/>
<path d="M277.19 835.696C298.867 813.563 324.941 793.787 353.971 776.653C366.835 769.053 380.429 761.903 395.52 756.55C425.664 745.872 458.976 743.284 491.251 744.469C500.218 744.796 509.107 745.382 517.843 746.172C554.976 749.645 591.514 756.659 626.477 766.615C661.018 776.462 693.869 789.837 729.811 800.692C768.576 812.406 807.974 824.936 849.274 830.902C884.41 835.955 922.426 835.301 954.182 824.146C959.962 822.117 965.51 819.76 970.79 817.036C1003.32 800.27 1020.04 773.098 1031.37 745.082C1034.94 736.243 1037.97 727.322 1040.85 718.564C1048.38 695.669 1056.52 672.283 1067.16 650.3C1084.53 614.67 1111.74 585.088 1150.87 561.389C1168.07 550.97 1189.31 541.218 1213.13 537.486C1247.14 532.147 1279.45 535.674 1309.17 534.571C1311.51 534.49 1313.86 534.367 1316.2 534.231C1351.56 532.052 1384.28 523.171 1411.01 506.909C1439.46 489.612 1460.87 462.712 1459.49 432.639" stroke="#F6F6F6" stroke-miterlimit="10"/>
<path d="M284.141 845.489C305.28 823.833 330.912 804.616 359.578 788.108C372.288 780.794 385.69 773.943 400.435 768.713C429.869 758.267 462.24 754.984 493.862 755.284C502.656 755.366 511.392 755.692 520.013 756.224C556.608 758.58 592.8 764.477 627.59 773.29C661.978 782.006 694.886 794.142 730.157 804.493C769.978 816.179 810.029 829.172 852.23 835.465C888.077 840.79 927.015 840.354 959.559 829.132C965.491 827.089 971.175 824.705 976.589 821.94C1009.96 804.915 1027.01 777.171 1038.74 748.542C1042.44 739.512 1045.61 730.4 1048.67 721.479C1056.61 698.134 1065.47 674.272 1077.06 651.881C1095.97 615.57 1124.97 585.388 1166.55 562.098C1183.74 552.468 1204.53 543.547 1227.48 539.747C1260.21 534.313 1291.6 536.342 1320.35 533.795C1322.61 533.591 1324.88 533.36 1327.12 533.114C1361.26 529.219 1392.04 518.623 1416.33 501.448C1442.19 483.184 1460.51 456.434 1457.68 427.396" stroke="#F5F5F5" stroke-miterlimit="10"/>
<path d="M291.111 855.268C311.712 834.089 336.922 815.416 365.223 799.549C377.76 792.507 390.989 785.969 405.389 780.848C434.112 770.633 465.543 766.643 496.512 766.057C505.133 765.894 513.735 765.962 522.24 766.248C558.298 767.501 594.144 772.268 628.781 779.922C663.015 787.509 695.981 798.391 730.579 808.238C771.456 819.883 812.179 833.34 855.245 839.973C891.802 845.584 931.661 845.353 964.992 834.048C971.059 831.991 976.896 829.581 982.464 826.775C1016.7 809.491 1034.04 781.162 1046.21 751.933C1050.03 742.726 1053.35 733.424 1056.56 724.325C1064.95 700.518 1074.51 676.192 1087.03 653.392C1107.49 616.387 1138.2 585.51 1182.28 562.738C1199.46 553.857 1219.8 545.794 1241.88 541.94C1273.36 536.41 1303.81 536.941 1331.58 532.951C1333.77 532.637 1335.96 532.297 1338.12 531.929C1371.01 526.304 1399.87 513.992 1421.74 495.904C1445.03 476.673 1460.22 450.073 1455.96 422.07" stroke="#F4F4F4" stroke-miterlimit="10"/>
<path d="M298.08 865.061C318.125 844.359 342.931 826.244 370.848 810.99C383.213 804.234 396.269 798.01 410.304 792.998C438.298 783.001 468.807 778.288 499.123 776.858C507.591 776.436 516.038 776.259 524.41 776.286C559.93 776.422 595.411 780.072 629.914 786.583C663.994 793.025 697.018 802.654 730.963 812.025C772.915 823.615 814.272 837.562 858.221 844.522C895.488 850.406 936.269 850.379 970.368 839.006C976.589 836.936 982.579 834.498 988.263 831.651C1023.36 814.122 1041 785.207 1053.58 755.366C1057.54 745.968 1060.99 736.488 1064.37 727.213C1073.18 702.956 1083.46 678.14 1096.93 654.945C1118.94 617.245 1151.29 585.551 1197.96 563.419C1215.15 555.274 1235.04 548.096 1256.22 544.16C1286.46 538.535 1315.97 537.568 1342.75 532.134C1344.86 531.712 1346.98 531.249 1349.07 530.758C1380.71 523.417 1407.65 509.388 1427.08 490.389C1447.78 470.19 1459.87 443.74 1454.17 416.772" stroke="#F4F4F4" stroke-miterlimit="10"/>
<path d="M305.05 874.853C324.557 854.628 348.941 837.058 376.493 822.444C388.704 815.96 401.568 810.049 415.258 805.146C442.541 795.381 472.109 789.974 501.773 787.658C510.067 786.991 518.362 786.569 526.637 786.323C561.619 785.356 596.755 787.862 631.104 793.242C665.03 798.554 698.112 806.917 731.386 815.811C774.413 827.32 816.403 841.784 861.235 849.071C899.213 855.241 940.915 855.418 975.802 843.977C982.157 841.893 988.301 839.414 994.118 836.54C1030.06 818.753 1048.01 789.252 1061.01 758.811C1065.1 749.236 1068.69 739.552 1072.22 730.114C1081.46 705.407 1092.44 680.115 1106.88 656.511C1130.42 618.116 1164.38 585.483 1213.69 564.113C1230.87 556.663 1250.3 550.398 1270.6 546.407C1299.59 540.7 1328.18 538.208 1353.96 531.343C1356 530.799 1358.02 530.227 1360.03 529.627C1390.44 520.57 1415.44 504.812 1432.45 484.899C1450.56 463.734 1459.55 437.433 1452.42 411.501" stroke="#F3F3F3" stroke-miterlimit="10"/>
<path d="M312.019 884.633C330.97 864.884 354.95 847.872 382.138 833.885C394.176 827.688 406.867 822.076 420.211 817.282C446.765 807.748 475.431 801.646 504.403 798.445C512.525 797.533 520.685 796.852 528.826 796.348C563.27 794.264 598.061 795.653 632.256 799.889C666.029 804.071 699.187 811.153 731.789 819.584C775.91 830.984 818.515 845.993 864.23 853.606C902.918 860.049 945.562 860.444 981.197 848.921C987.706 846.824 993.984 844.318 999.955 841.389C1036.76 823.357 1055.02 793.27 1068.44 762.216C1072.67 752.451 1076.39 742.59 1080.1 732.974C1089.77 707.804 1101.45 682.049 1116.84 658.037C1141.94 618.948 1177.48 585.238 1229.43 564.767C1246.66 557.984 1265.59 552.673 1285.02 548.614C1312.76 542.812 1340.41 538.821 1365.22 530.513C1367.17 529.859 1369.11 529.178 1371.05 528.456C1400.22 517.683 1423.28 500.208 1437.87 479.383C1453.38 457.237 1459.28 431.1 1450.69 406.203" stroke="#F3F3F3" stroke-miterlimit="10"/>
<path d="M318.97 894.426C361.767 849.643 432.288 820.047 507.015 809.246C581.741 798.445 660.211 805.419 732.154 823.37C777.37 834.647 820.589 850.201 867.187 858.155C913.786 866.11 966.221 865.483 1005.75 846.279C1055.25 822.239 1071.74 776.844 1087.91 735.861C1114.46 668.47 1156.93 596.815 1245.1 565.448C1289.01 549.826 1340.41 545.903 1381.96 527.298C1439.56 501.502 1468.32 447.213 1448.89 400.905" stroke="#F2F2F2" stroke-miterlimit="10"/>
<path d="M-507.322 -83.3C-470.515 -108.306 -431.578 -131.746 -390.816 -153.457C-372.691 -163.1 -353.722 -172.593 -331.891 -176.897C-276.096 -187.915 -219.264 -162.786 -176.563 -135.029C-137.222 -109.464 -102.202 -80.576 -72.4607 -49.1547C-42.9695 -18.033 -18.1055 16.0443 20.7745 41.4456C59.6737 66.8469 118.138 81.9787 166.138 66.2476C194.688 56.8907 215.347 37.8771 226.675 17.0658C238.003 -3.74559 240.941 -26.3684 241.613 -48.678C242.381 -74.2155 240.787 -101.169 257.99 -123.615C275.808 -146.837 313.767 -161.479 350.938 -159.436C403.815 -156.535 442.81 -124.977 481.306 -99.1128C530.227 -66.2478 589.843 -38.7626 656.698 -32.8515C723.552 -26.9404 797.837 -46.9618 829.267 -89.2247" stroke="#F2F2F2" stroke-miterlimit="10"/>
<path d="M-502.944 -72.7854C-466.79 -97.3967 -428.409 -120.346 -388.166 -141.471C-370.272 -150.869 -351.552 -160.062 -330.105 -164.312C-287.021 -172.838 -243.264 -159.967 -205.901 -141.199C-195.725 -136.091 -186.009 -130.548 -176.928 -124.868C-137.837 -100.461 -102.873 -72.7309 -72.9791 -42.4537C-43.3919 -12.4624 -18.4127 20.6069 20.1985 45.2183C41.8561 59.0153 68.8705 70.0612 97.0177 75.0733C121.536 79.4317 147.034 79.1321 170.189 71.8318C174.317 70.5242 178.311 69.0261 182.131 67.3372C205.69 56.9587 222.778 39.852 233.088 21.3969C236.41 15.4722 239.079 9.39768 241.267 3.25506C246.97 -12.7893 249.466 -29.4738 250.983 -45.8723C253.44 -71.9001 254.688 -98.7179 273.274 -120.918C291.725 -142.969 328.205 -157.243 364.512 -155.391C416.179 -152.748 454.637 -122.784 492.538 -98.4591C495.533 -96.5387 498.547 -94.6455 501.619 -92.7796C547.949 -64.4908 602.822 -41.9089 663.379 -37.5777C727.949 -32.9605 799.123 -53.2135 828.883 -94.6591" stroke="#F3F3F3" stroke-miterlimit="10"/>
<path d="M-498.585 -62.2708C-463.085 -86.4735 -425.261 -108.933 -385.536 -129.499C-367.891 -138.638 -349.401 -147.559 -328.339 -151.741C-286.022 -160.13 -242.995 -148.063 -206.073 -130.248C-195.993 -125.399 -186.374 -120.129 -177.331 -114.721C-138.489 -91.4857 -103.584 -64.8995 -73.555 -35.7663C-43.8142 -6.9055 -18.6814 25.1424 19.6418 48.991C42.1826 63.0196 69.8882 74.4604 98.8034 79.922C123.936 84.6481 150.317 84.6618 174.24 77.3887C178.522 76.0948 182.65 74.583 186.624 72.8668C211.085 62.3522 228.615 44.7143 239.501 25.7144C242.995 19.6263 245.856 13.3883 248.237 7.09586C254.477 -9.34348 257.779 -26.3957 260.333 -43.0802C264.48 -69.5847 268.512 -96.2527 288.519 -118.249C307.527 -139.142 342.586 -153.048 378.048 -151.373C428.506 -148.976 466.426 -120.619 503.731 -97.8326C506.669 -96.0348 509.645 -94.2642 512.659 -92.5072C558.202 -66.0708 611.616 -45.4229 670.023 -42.2903C732.288 -38.9534 800.371 -59.4651 828.461 -100.066" stroke="#F3F3F3" stroke-miterlimit="10"/>
<path d="M-494.227 -51.7428C-459.379 -75.5505 -422.112 -97.5196 -382.925 -117.514C-365.51 -126.394 -347.289 -135.043 -326.592 -139.156C-285.024 -147.41 -242.745 -136.146 -206.246 -119.298C-196.262 -114.708 -186.72 -109.709 -177.734 -104.575C-139.142 -82.4967 -104.275 -57.0682 -74.1118 -29.0791C-44.2366 -1.34878 -18.9311 29.6503 19.0657 52.7499C42.5281 67.0236 70.8866 78.873 100.589 84.7569C126.355 89.8507 153.581 90.1912 178.291 82.9454C182.727 81.6515 187.008 80.1261 191.117 78.3963C216.48 67.7319 234.471 49.5628 245.933 30.0181C249.6 23.7665 252.634 17.3651 255.245 10.9228C262.023 -5.91149 266.151 -23.3451 269.741 -40.302C275.578 -67.2968 282.336 -93.7741 303.84 -115.593C323.29 -135.329 357.043 -148.867 391.661 -147.355C440.928 -145.217 478.291 -118.454 515.002 -97.2063C517.901 -95.5311 520.819 -93.8831 523.776 -92.2487C568.531 -67.6646 620.506 -48.9507 676.743 -47.0303C736.704 -44.9736 801.715 -65.7305 828.115 -105.501" stroke="#F4F4F4" stroke-miterlimit="10"/>
<path d="M-489.869 -41.2279C-455.693 -64.627 -418.963 -86.1194 -380.294 -105.542C-363.11 -114.177 -345.139 -122.539 -324.825 -126.584C-284.025 -134.702 -242.496 -124.242 -206.4 -108.347C-196.531 -104.016 -187.065 -99.2899 -178.118 -94.4276C-139.776 -73.5073 -104.966 -49.2228 -74.6687 -22.3914C-44.6591 4.20845 -19.1422 34.1452 18.4898 56.5229C42.8738 71.0145 71.885 83.2861 102.375 89.6194C128.755 95.0674 156.845 95.7348 182.343 88.5162C186.912 87.2223 191.347 85.6969 195.61 83.9399C221.875 73.1392 240.327 54.439 252.346 34.3495C256.186 27.9209 259.411 21.356 262.215 14.7639C269.53 -2.46535 274.464 -20.2667 279.111 -37.5096C286.637 -64.9948 296.045 -91.2677 319.104 -112.924C338.919 -131.528 371.463 -144.658 405.216 -143.337C453.274 -141.457 490.099 -116.288 526.215 -96.5932C529.056 -95.0405 531.936 -93.515 534.855 -92.0032C578.842 -69.2714 629.338 -52.4916 683.424 -51.7834C741.082 -51.0207 803.002 -72.0227 827.731 -110.949" stroke="#F4F4F4" stroke-miterlimit="10"/>
<path d="M-485.51 -30.713C-451.987 -53.7172 -415.814 -74.7192 -377.664 -93.5693C-360.71 -101.946 -343.008 -110.036 -323.059 -114.013C-283.027 -122.008 -242.227 -112.338 -206.573 -97.3965C-196.8 -93.3377 -187.411 -88.8704 -178.521 -84.2804C-140.409 -64.5178 -105.677 -41.3911 -75.2255 -15.7037C-45.0815 9.76565 -19.3342 38.6264 17.9138 60.2959C43.2386 75.0055 72.9025 87.6993 104.179 94.4684C131.194 100.284 160.147 101.278 186.413 94.0871C191.136 92.7932 195.706 91.2677 200.122 89.4835C227.309 78.5467 246.183 59.3016 258.778 38.6673C262.791 32.0752 266.208 25.3469 269.203 18.605C277.056 0.980757 282.759 -17.2156 288.499 -34.7173C297.639 -62.6927 309.715 -88.7614 334.407 -110.254C354.49 -127.755 385.901 -140.463 418.81 -139.319C465.658 -137.684 501.946 -114.108 537.466 -95.9664C540.269 -94.5363 543.091 -93.1334 545.952 -91.7442C589.152 -70.8511 638.189 -56.0189 690.125 -56.5229C745.498 -57.0404 804.307 -78.2876 827.367 -116.396" stroke="#F5F5F5" stroke-miterlimit="10"/>
<path d="M-481.133 -20.1848C-448.262 -42.794 -412.646 -63.2921 -375.014 -81.5701C-358.31 -89.6876 -340.838 -97.4919 -321.254 -101.414C-281.99 -109.273 -241.92 -100.393 -206.688 -86.4188C-197.03 -82.6188 -187.718 -78.4375 -178.867 -74.1063C-141.005 -55.5014 -106.33 -33.5324 -75.744 -8.98911C-45.4656 15.3362 -19.4688 43.1074 17.376 64.0686C43.6224 78.9961 73.92 92.1258 105.984 99.3308C133.632 105.514 163.43 106.822 190.483 99.6577C195.36 98.3774 200.083 96.8247 204.634 95.0268C232.723 83.9538 252.058 64.1775 265.21 42.9848C269.395 36.2293 273.005 29.3376 276.211 22.4459C284.602 4.42659 291.13 -14.1375 297.888 -31.9116C308.717 -60.3774 323.328 -86.2281 349.69 -107.571C369.965 -123.983 400.32 -136.254 432.384 -135.287C478.022 -133.912 513.773 -111.929 548.698 -95.3263C551.443 -94.0188 554.227 -92.7249 557.03 -91.4718C599.443 -72.4311 647.021 -59.5466 696.806 -61.2491C749.875 -63.0469 805.594 -84.5529 826.982 -121.817" stroke="#F6F6F6" stroke-miterlimit="10"/>
<path d="M-476.774 -9.67023C-444.557 -31.8708 -409.498 -51.8922 -372.403 -69.5982C-355.93 -77.4706 -338.726 -84.9888 -319.507 -88.8433C-281.011 -96.5658 -241.69 -88.4892 -206.861 -75.4821C-197.299 -71.9409 -188.064 -68.0319 -179.27 -63.9732C-141.658 -46.526 -107.04 -25.7146 -76.32 -2.30181C-45.9072 20.8794 -19.6608 47.5474 16.7808 67.8276C43.968 82.973 74.8992 96.5249 107.75 104.166C136.013 110.717 166.694 112.351 194.515 105.214C199.526 103.934 204.403 102.382 209.107 100.556C238.099 89.3336 257.875 69.0261 271.603 47.3022C275.962 40.3833 279.744 33.3145 283.162 26.273C292.09 7.85871 299.424 -11.0867 307.238 -29.1332C319.757 -58.0893 336.826 -83.7358 364.954 -104.915C385.344 -120.278 414.739 -132.073 445.939 -131.27C490.368 -130.139 525.6 -109.764 559.91 -94.6999C562.618 -93.515 565.344 -92.3436 568.09 -91.2132C609.715 -74.0247 655.834 -63.0743 703.469 -65.9889C754.234 -69.0807 806.88 -90.8182 826.579 -127.252" stroke="#F6F6F6" stroke-miterlimit="10"/>
<path d="M-472.416 0.858117C-440.851 -20.9475 -406.349 -40.4786 -369.773 -57.6125C-353.53 -65.2261 -336.576 -72.472 -317.741 -76.2583C-280.013 -83.8447 -241.459 -76.5307 -207.034 -64.5179C-197.587 -61.2218 -188.429 -57.5989 -179.693 -53.8126C-142.33 -37.5367 -107.77 -17.8694 -76.896 4.39931C-46.3296 26.4365 -19.7952 51.974 16.2048 71.6004C44.352 86.9501 75.8976 100.938 109.536 109.028C138.432 115.933 169.958 117.895 198.586 110.799C203.75 109.518 208.781 107.966 213.619 106.113C243.514 94.7544 263.75 73.9158 278.035 51.6335C282.566 44.5511 286.541 37.3189 290.17 30.1275C299.635 11.3319 307.795 -8.0085 316.646 -26.3274C330.854 -55.7738 350.323 -81.2432 380.256 -102.218C400.704 -116.546 429.178 -127.837 459.533 -127.224C502.771 -126.353 537.446 -107.571 571.162 -94.046C573.811 -92.9837 576.499 -91.9349 579.206 -90.9271C620.045 -75.5909 664.704 -66.5745 710.189 -70.7014C758.669 -75.0734 808.205 -97.0697 826.234 -132.672" stroke="#F7F7F7" stroke-miterlimit="10"/>
<path d="M-468.058 11.3726C-437.165 -10.0245 -403.2 -29.0788 -367.142 -45.6408C-351.13 -52.9956 -334.445 -59.969 -315.974 -63.6873C-279.014 -71.1374 -241.19 -64.6134 -207.187 -53.5676C-197.837 -50.5303 -188.755 -47.1798 -180.077 -43.6659C-142.963 -28.5477 -108.461 -10.0381 -77.4528 11.0865C-46.7712 32.0068 -19.9296 56.4139 15.6096 75.3729C44.7552 90.8997 76.9152 105.351 111.322 113.863C140.851 121.136 173.222 123.424 202.637 116.342C207.955 115.062 213.12 113.495 218.131 111.629C248.947 100.134 269.626 78.7507 284.467 55.9372C289.171 48.6913 293.338 41.2957 297.158 33.9545C307.162 14.7639 316.147 -4.94421 326.016 -23.5491C341.914 -53.4859 363.706 -78.8055 395.539 -99.5623C415.987 -112.896 443.616 -123.656 473.107 -123.22C515.136 -122.594 549.274 -105.419 582.374 -93.4333C584.986 -92.4936 587.616 -91.5674 590.265 -90.6821C630.317 -77.1983 673.517 -70.1159 716.851 -75.4413C763.027 -81.0936 809.472 -103.335 825.811 -138.107" stroke="#F8F8F8" stroke-miterlimit="10"/>
<path d="M-463.68 21.8873C-433.44 0.885241 -400.032 -17.6652 -364.493 -33.6687C-348.73 -40.7647 -332.275 -47.4658 -314.189 -51.1159C-277.997 -58.4299 -240.903 -52.7095 -207.322 -42.6307C-198.087 -39.8522 -189.082 -36.7741 -180.442 -33.5325C-143.578 -19.572 -109.133 -2.22013 -77.9714 17.7604C-47.1554 37.5367 -19.9874 60.7996 15.091 79.1185C45.1966 94.836 77.9326 109.75 113.126 118.712C143.27 126.353 176.525 128.954 206.707 121.913C212.179 120.646 217.497 119.066 222.643 117.173C254.361 105.541 275.481 83.6267 290.899 60.2548C295.776 52.8455 300.115 45.2864 304.147 37.7818C314.688 18.1963 324.48 -1.89325 335.405 -20.7706C353.011 -51.184 377.049 -76.3946 410.822 -96.9064C431.174 -109.26 458.016 -119.447 486.662 -119.189C527.481 -118.821 561.081 -103.24 593.587 -92.8068C596.16 -91.9896 598.733 -91.186 601.325 -90.4233C640.589 -78.7918 682.329 -73.6434 723.513 -80.181C767.385 -87.1272 810.739 -109.614 825.408 -143.541" stroke="#F8F8F8" stroke-miterlimit="10"/>
<path d="M-459.322 32.4154C-429.734 11.8083 -396.883 -6.25179 -361.862 -21.6696C-346.33 -28.5205 -330.144 -34.9219 -312.422 -38.5176C-276.979 -45.6953 -240.653 -40.7785 -207.475 -31.6531C-198.336 -29.1334 -189.408 -26.3413 -180.826 -23.3585C-144.211 -10.5557 -109.805 5.63847 -78.528 24.4749C-47.5776 43.1207 -20.0832 65.2123 14.5152 82.9047C45.6 98.7993 78.9313 114.176 114.912 123.574C145.69 131.583 179.789 134.511 210.758 127.483C216.365 126.216 221.837 124.636 227.136 122.716C259.757 110.935 281.338 88.4889 297.312 64.5722C302.362 56.9995 306.893 49.2633 311.136 41.6225C322.214 21.642 332.832 1.17111 344.794 -17.965C364.09 -48.8688 390.317 -74.0113 426.125 -94.2234C446.4 -105.664 472.474 -115.253 500.275 -115.171C539.885 -115.062 572.947 -101.061 604.858 -92.1804C607.373 -91.4858 609.907 -90.8048 612.442 -90.151C650.918 -80.3718 691.2 -77.1575 730.234 -84.9073C771.821 -93.1338 812.083 -115.866 825.062 -148.962" stroke="#F9F9F9" stroke-miterlimit="10"/>
<path d="M-454.963 42.9301C-426.029 22.7317 -393.715 5.14825 -359.251 -9.69755C-343.949 -16.2896 -328.013 -22.4186 -310.675 -25.9462C-276 -33.0014 -240.403 -28.8745 -207.667 -20.7025C-198.624 -18.4552 -189.792 -15.9219 -181.248 -13.2115C-144.864 -1.56641 -110.534 13.4701 -79.104 31.1624C-48.0192 48.6641 -20.1792 69.5981 13.92 86.664C46.0032 102.722 79.9297 118.576 116.678 128.423C148.09 136.799 183.053 140.041 214.79 133.054C220.55 131.787 226.157 130.193 231.61 128.273C265.133 116.356 287.155 93.3786 303.725 68.9171C308.966 61.1673 313.67 53.2813 318.106 45.4907C329.722 25.1152 341.222 4.29019 354.144 -15.1455C375.226 -46.5124 403.488 -71.6822 441.37 -91.5265C461.491 -102.068 486.874 -111.03 513.811 -111.126C552.23 -111.262 584.736 -98.8677 616.051 -91.5265C618.528 -90.9545 621.005 -90.396 623.501 -89.8649C661.21 -81.938 700.013 -80.6714 736.896 -89.6197C776.179 -99.1265 813.35 -122.117 824.659 -154.383" stroke="#F9F9F9" stroke-miterlimit="10"/>
<path d="M-450.605 53.4582C-422.342 33.6547 -390.566 16.5752 -356.621 2.28785C-341.549 -4.04545 -325.882 -9.90205 -308.909 -13.3615C-275.002 -20.2805 -240.134 -16.9436 -207.821 -9.75222C-198.874 -7.7637 -190.118 -5.50279 -181.632 -3.06481C-145.498 7.42259 -111.226 21.315 -79.6608 37.8497C-48.4416 54.2345 -20.2559 73.9699 13.3441 90.4365C46.4449 106.644 80.928 122.988 118.464 133.271C150.49 142.002 186.317 145.584 218.842 138.624C224.755 137.371 230.515 135.764 236.102 133.816C270.547 121.762 293.011 98.2544 310.138 73.2344C315.552 65.3212 320.448 57.2718 325.094 49.3313C337.248 28.5608 349.555 7.35449 363.533 -12.3536C386.304 -44.1972 416.621 -69.4351 456.672 -88.8572C476.621 -98.5274 501.312 -106.836 527.405 -107.108C564.614 -107.503 596.582 -96.7023 627.302 -90.9002C629.722 -90.4371 632.16 -90.0149 634.598 -89.6063C671.52 -83.5181 708.864 -84.1991 743.597 -94.3597C780.576 -105.16 814.656 -128.382 824.294 -159.817" stroke="#FAFAFA" stroke-miterlimit="10"/>
<path d="M-446.227 63.9729C-418.617 44.5644 -387.398 27.9752 -353.971 14.2599C-339.149 8.17175 -323.712 2.60117 -307.123 -0.79021C-273.984 -7.57297 -239.846 -5.05327 -207.955 1.19831C-199.123 2.92805 -190.445 4.91657 -181.997 7.08215C-146.112 16.3982 -111.897 29.1465 -80.1791 44.5371C-48.8639 59.7915 -20.3135 78.342 12.7873 94.1957C46.9057 110.553 81.9265 127.401 120.269 138.107C152.928 147.205 189.6 151.1 222.912 144.167C228.96 142.914 234.874 141.307 240.614 139.332C275.962 127.142 298.867 103.09 316.57 77.5384C322.157 69.4617 327.226 61.2353 332.083 53.145C344.775 31.9795 357.907 10.4054 372.922 -9.58874C397.383 -41.9226 429.715 -67.3103 471.955 -86.2012C491.712 -95.0406 515.731 -102.654 540.979 -103.09C576.979 -103.73 608.41 -94.5367 638.534 -90.2736C640.915 -89.9331 643.296 -89.6335 645.677 -89.3475C681.811 -85.1116 717.696 -87.7267 750.259 -99.0994C784.934 -111.18 815.923 -134.661 823.891 -165.252" stroke="#FBFBFB" stroke-miterlimit="10"/>
<path d="M-441.869 74.4876C-414.912 55.4877 -384.249 39.3753 -351.341 26.232C-336.749 20.4026 -321.561 15.1044 -305.357 11.7812C-272.985 5.1346 -239.577 6.85071 -208.128 12.1489C-199.392 13.6198 -190.79 15.3224 -182.4 17.2292C-146.765 25.3875 -112.608 36.9782 -80.755 51.2247C-49.267 65.335 -20.371 82.6869 12.2114 97.9549C47.3666 114.435 82.925 131.801 122.035 142.955C155.328 152.421 192.864 156.643 226.944 149.738C233.146 148.485 239.213 146.878 245.088 144.876C281.338 132.536 304.704 107.966 322.963 81.8561C328.723 73.616 333.984 65.226 339.034 56.9859C352.263 35.4391 366.202 13.47 382.253 -6.79653C408.403 -39.6071 442.675 -65.2399 487.181 -83.5316C506.746 -91.5674 530.112 -98.4455 554.496 -99.072C589.287 -99.9709 620.179 -92.371 649.709 -89.647C652.032 -89.4291 654.375 -89.252 656.698 -89.0886C692.045 -86.7051 726.49 -91.2541 756.883 -103.825C789.274 -117.187 817.171 -140.913 823.45 -170.672" stroke="#FBFBFB" stroke-miterlimit="10"/>
<path d="M-437.51 85.0157C-411.206 66.4108 -381.101 50.7887 -348.71 38.231C-334.349 32.6604 -319.43 27.6483 -303.59 24.3795C-271.987 17.8691 -239.309 18.7817 -208.281 23.1128C-199.641 24.325 -191.136 25.7551 -182.803 27.3895C-147.417 34.3902 -113.318 44.8231 -81.3119 57.9392C-49.6895 70.9054 -20.4094 87.0587 11.6354 101.741C47.8274 118.33 83.9233 136.227 123.821 147.818C157.728 157.651 196.128 162.187 230.995 155.309C237.351 154.056 243.552 152.435 249.581 150.419C286.733 137.943 310.56 112.828 329.376 86.1734C335.309 77.7699 340.762 69.2165 346.023 60.8266C359.789 38.8848 374.554 16.548 391.642 -3.99099C419.482 -37.2919 455.674 -63.2652 502.483 -80.8487C521.837 -88.1217 544.551 -94.2371 568.09 -95.0407C601.671 -96.1984 632.045 -90.1783 660.96 -89.007C663.245 -88.9117 665.53 -88.8436 667.815 -88.8163C702.375 -88.2852 735.36 -94.7683 763.603 -108.552C793.69 -123.207 818.496 -147.178 823.104 -176.107" stroke="#FCFCFC" stroke-miterlimit="10"/>
<path d="M-433.152 95.5307C-407.52 77.3343 -377.952 62.2025 -346.099 50.2033C-331.968 44.8779 -317.299 40.1517 -301.843 36.951C-271.008 30.5769 -239.059 30.6858 -208.454 34.0636C-199.929 35.0034 -191.481 36.1747 -183.206 37.5367C-148.07 43.3797 -114.029 52.6549 -81.8879 64.6269C-50.1311 76.4627 -20.4863 91.3902 11.0401 105.514C48.2881 122.199 84.9026 140.654 125.587 152.68C160.128 162.882 199.392 167.744 235.027 160.893C241.517 159.654 247.891 158.019 254.054 155.976C292.128 143.364 316.378 117.718 335.77 90.5185C341.875 81.9515 347.501 73.2211 352.973 64.6814C367.277 42.3446 382.867 19.6264 400.992 -1.18496C430.522 -34.9762 468.576 -61.4126 517.728 -78.1652C536.89 -84.6892 558.95 -90.0282 581.626 -91.0089C614.016 -92.4117 643.834 -87.9989 672.154 -88.3802C674.381 -88.4075 676.627 -88.4619 678.854 -88.5573C712.627 -89.8784 744.154 -98.2956 770.247 -113.291C798.029 -129.227 819.744 -153.443 822.682 -181.541" stroke="#FDFDFD" stroke-miterlimit="10"/>
<path d="M-428.774 106.045C-403.795 88.244 -374.784 73.6025 -343.45 62.1753C-329.568 57.1087 -315.149 52.655 -300.058 49.5224C-269.99 43.2708 -238.771 42.5353 -208.589 45.0141C-200.16 45.6815 -191.808 46.5941 -183.571 47.6837C-148.666 52.3689 -114.682 60.4865 -82.4064 71.3144C-50.5344 82.0197 -20.4864 95.7078 10.5216 109.273C48.8448 126.04 85.9584 145.053 127.43 157.515C162.586 168.071 202.714 173.26 239.136 166.45C245.779 165.211 252.288 163.576 258.605 161.506C297.581 148.744 322.291 122.566 342.24 94.8225C348.518 86.0921 354.336 77.1982 360.019 68.5086C374.861 45.7769 391.258 22.691 410.419 1.59357C441.658 -32.6744 481.536 -59.6964 533.069 -75.5093C552.039 -81.325 573.427 -85.8332 595.258 -86.9909C626.438 -88.6525 655.719 -85.8332 683.443 -87.7536C685.632 -87.9034 687.821 -88.0805 689.991 -88.2984C722.976 -91.4719 753.043 -101.837 776.986 -118.031C802.483 -135.26 821.088 -159.722 822.355 -186.975" stroke="#FDFDFD" stroke-miterlimit="10"/>
<path d="M-424.416 116.573C-400.09 99.1671 -371.635 85.0159 -340.819 74.1608C-327.168 69.3529 -312.998 65.1716 -298.291 62.1071C-268.973 55.9917 -238.502 54.4527 -208.762 55.9645C-200.429 56.3731 -192.173 57.0132 -183.974 57.8304C-149.318 61.3444 -115.392 68.3178 -82.9824 78.0016C-50.9568 87.5765 -20.544 100.039 9.9264 113.046C49.3248 129.867 86.9376 149.466 129.197 162.378C164.986 173.301 205.958 178.817 243.168 172.021C249.965 170.781 256.608 169.133 263.078 167.049C302.957 154.151 328.109 127.442 348.634 99.1535C355.085 90.2596 361.094 81.2023 366.97 72.363C382.349 49.2362 399.571 25.7689 419.77 4.39914C452.698 -30.3591 494.4 -58.103 548.314 -72.8263C567.11 -77.961 587.808 -81.6248 608.794 -82.9595C638.765 -84.8663 667.507 -83.6541 694.618 -87.1136C696.749 -87.386 698.899 -87.6857 701.03 -88.0262C733.248 -93.052 761.837 -105.351 783.629 -122.757C806.822 -141.267 822.355 -165.973 821.933 -192.396" stroke="#FEFEFE" stroke-miterlimit="10"/>
<path d="M-420.058 127.088C-396.384 110.09 -368.486 96.4159 -338.189 86.1464C-324.768 81.5973 -310.867 77.6884 -296.525 74.692C-267.974 68.7128 -238.253 66.3702 -208.915 66.9286C-200.698 67.0784 -192.499 67.4325 -184.358 67.9909C-149.952 70.3472 -116.083 76.1629 -83.52 84.7027C-51.3792 93.1335 -20.5632 104.343 9.36961 116.805C49.8624 133.667 87.9552 153.865 131.002 167.213C167.424 178.504 209.261 184.333 247.258 177.577C254.189 176.338 261.005 174.69 267.61 172.579C308.39 159.545 334.003 132.291 355.104 103.457C361.728 94.4001 367.93 85.1794 373.997 76.1766C389.914 52.6548 407.962 28.8062 429.197 7.16402C463.814 -28.0709 507.341 -56.6729 563.654 -70.1704C582.317 -74.6377 602.304 -77.4434 622.426 -78.9553C651.187 -81.1208 679.392 -81.5022 705.907 -86.5007C708 -86.8957 710.093 -87.3179 712.166 -87.7674C743.597 -94.6455 770.726 -108.878 790.368 -127.497C811.258 -147.287 823.699 -172.252 821.606 -197.844" stroke="#FEFEFE" stroke-miterlimit="10"/>
<path d="M-415.699 137.616C-362.227 99.0444 -285.331 78.9549 -209.088 77.879C-132.826 76.8166 -57.4272 93.719 8.7744 120.578C50.3808 137.453 88.9344 158.291 132.749 172.075C176.563 185.858 228.288 191.96 272.064 178.122C326.861 160.811 354.643 118.262 380.928 80.0309C424.186 17.1474 484.166 -47.9017 578.88 -67.4873C626.054 -77.2392 677.606 -74.5152 723.187 -87.4951C786.413 -105.487 828.48 -155.214 821.146 -203.251" stroke="white" stroke-miterlimit="10"/>
<path d="M-81.3119 696.009C-89.3951 649.701 -24.9407 610.571 40.0513 603.366C105.043 596.175 170.246 611.02 234.643 620.541C299.04 630.061 371.501 633.207 425.299 606.349C494.074 572.013 509.99 499.786 580.742 467.534C635.885 442.391 707.674 449.923 764.179 468.623C796.128 479.192 823.296 496.98 853.824 509.374C992.295 565.57 1001.64 680.387 1119.28 697.521C1246.68 716.058 1315.8 671.997 1339.83 641.448C1370.63 602.304 1421.97 500.753 1296.15 430.174C1245.04 401.504 1194.57 370.941 1156.97 333.186C1100.68 276.663 1101.06 190.258 1173.04 143.541C1222.39 111.534 1298.17 99.8345 1331.69 58.7838C1354.21 31.2033 1351.14 -4.35851 1331.77 -33.1376C1312.42 -61.903 1278.68 -84.662 1242.03 -103.104" stroke="#F2F2F2" stroke-miterlimit="10"/>
<path d="M-78.3932 698.324C-83.9612 650.682 -19.8716 609.522 47.0596 601.336C112.397 593.341 178.676 608.078 243.072 618.579C306.72 628.958 377.376 633.67 431.002 609.263C499.508 578.019 518.765 509.456 589.421 477.626C645.716 452.402 716.352 457.101 774.202 473.445C807.437 482.842 836.89 499.595 868.858 512.166C1004.43 565.448 1015.58 676.546 1130.67 693.435C1254.45 711.563 1323.21 669.872 1348.19 639.799C1379.85 601.69 1428.83 503.844 1309.94 434.069C1260.92 405.304 1212.31 374.155 1175.33 336.645C1120.69 281.471 1120.19 198.13 1188.13 151.822C1235.16 119.788 1308.21 106.74 1341.58 66.2201C1364.49 38.5307 1363.09 3.47278 1346.15 -25.5106C1329.08 -54.7663 1297.92 -78.8056 1262.71 -98.6091" stroke="#F3F3F3" stroke-miterlimit="10"/>
<path d="M-75.4749 700.64C-78.5469 651.676 -14.8028 608.487 54.0676 599.293C119.732 590.522 187.085 605.109 251.501 616.618C314.4 627.854 383.271 634.133 436.724 612.164C504.941 584.025 527.463 519.003 598.138 487.718C655.488 462.33 725.146 464.237 784.282 478.266C818.842 486.465 850.522 502.223 883.949 514.958C1016.49 565.461 1029.56 672.691 1142.09 689.349C1262.29 707.068 1330.64 667.734 1356.58 638.151C1389.08 601.091 1435.74 506.881 1323.78 437.978C1276.86 409.103 1230.13 377.382 1193.72 340.105C1140.75 286.265 1139.37 205.975 1203.26 160.116C1247.96 128.041 1318.29 113.658 1351.53 73.6837C1374.82 45.8717 1375.09 11.3041 1360.61 -17.8699C1345.82 -47.6296 1317.25 -72.9492 1283.46 -94.1011" stroke="#F3F3F3" stroke-miterlimit="10"/>
<path d="M-72.5567 702.955C-73.1327 652.656 -9.75345 607.479 61.0753 597.25C127.085 587.716 195.514 602.126 259.93 614.643C322.061 626.71 389.146 634.596 442.426 615.065C510.375 590.018 536.199 528.633 606.835 497.811C665.299 472.3 733.978 471.347 794.323 483.087C830.247 490.074 864.096 504.852 899.021 517.764C1028.41 565.597 1043.54 668.85 1153.52 685.276C1270.12 702.587 1338.07 665.609 1364.97 636.517C1398.28 600.478 1442.67 509.851 1337.61 441.887C1292.74 412.863 1248.04 380.542 1212.12 343.564C1161 290.964 1158.53 213.793 1218.41 168.397C1260.79 136.268 1328.26 120.509 1361.47 81.1202C1385.05 53.1584 1387.12 19.0948 1375.05 -10.2427C1362.57 -40.5336 1336.57 -67.0926 1304.22 -89.6064" stroke="#F4F4F4" stroke-miterlimit="10"/>
<path d="M-69.6382 705.257C-67.7182 653.623 -4.6846 606.471 68.0834 595.207C134.439 584.938 203.923 599.13 268.359 612.682C329.741 625.58 395.021 635.059 448.147 617.98C515.808 596.024 544.954 538.262 615.533 507.917C675.111 482.284 742.867 478.429 804.384 487.936C841.69 493.697 877.69 507.522 914.093 520.583C1040.24 565.856 1057.52 665.037 1164.94 681.217C1277.95 698.106 1345.46 663.498 1373.36 634.896C1407.48 599.892 1449.62 512.765 1351.43 445.823C1308.61 416.635 1265.88 383.784 1230.49 347.051C1181.11 295.758 1177.67 221.611 1233.52 176.705C1273.59 144.494 1338.28 127.442 1371.38 88.5841C1395.3 60.4996 1399.14 26.8855 1389.45 -2.60181C1379.31 -33.4511 1355.85 -61.2223 1324.92 -85.0981" stroke="#F4F4F4" stroke-miterlimit="10"/>
<path d="M-66.7197 707.572C-62.2845 654.618 0.384273 605.477 75.0915 593.164C141.792 582.173 212.333 596.133 276.787 610.707C337.421 624.422 400.954 635.59 453.85 620.881C521.299 602.126 553.709 547.905 624.231 517.995C684.941 492.254 751.795 485.444 814.426 492.744C853.152 497.252 891.245 510.15 929.146 523.362C1051.95 566.183 1071.48 661.169 1176.33 677.118C1285.75 693.598 1352.83 661.346 1381.71 633.234C1416.61 599.252 1456.55 515.544 1365.22 449.718C1324.45 420.34 1283.65 386.971 1248.85 350.497C1201.17 300.525 1196.77 229.347 1248.61 184.973C1286.36 152.653 1348.28 134.32 1381.29 96.0206C1405.57 67.8272 1411.18 34.6353 1403.85 5.01176C1396.05 -26.4232 1375.1 -55.3929 1345.63 -80.6172" stroke="#F5F5F5" stroke-miterlimit="10"/>
<path d="M-63.8013 709.888C-56.8701 655.599 5.45313 604.51 82.0995 591.121C149.146 579.422 220.762 593.124 285.236 608.746C345.12 623.265 406.848 636.067 459.591 623.796C526.752 608.147 562.503 557.548 632.947 528.102C694.771 502.251 760.762 492.445 824.506 497.579C864.653 500.821 904.82 512.82 944.237 526.168C1063.64 566.619 1085.47 657.342 1187.77 673.046C1293.58 689.117 1360.22 659.221 1390.1 631.6C1425.77 598.64 1463.58 518.254 1379.04 453.628C1340.31 424.018 1301.47 390.186 1267.24 353.956C1221.27 305.306 1215.9 237.056 1263.74 193.254C1299.19 160.811 1358.34 141.226 1391.21 103.457C1415.87 75.1414 1423.28 42.3581 1418.27 12.6392C1412.85 -19.3814 1394.4 -49.5361 1366.35 -76.1223" stroke="#F6F6F6" stroke-miterlimit="10"/>
<path d="M-60.8831 712.189C-51.4559 656.579 10.541 603.543 89.1073 589.078C156.499 576.67 229.171 590.086 293.664 606.784C352.8 622.079 412.723 636.558 465.293 626.697C532.186 614.166 571.258 567.204 641.645 538.194C704.602 512.234 769.728 499.377 834.547 502.401C876.135 504.335 918.355 515.489 959.29 528.96C1075.22 567.123 1099.43 653.487 1199.16 668.96C1301.38 684.623 1367.56 657.069 1398.45 629.952C1434.87 598.013 1470.62 520.869 1392.84 457.536C1356.15 427.654 1319.27 393.4 1285.59 357.416C1241.32 310.086 1234.96 244.724 1278.84 201.535C1311.96 168.928 1368.36 148.131 1401.12 110.894C1426.14 82.4551 1435.39 50.0803 1432.67 20.2525C1429.67 -12.381 1413.68 -43.707 1387.05 -71.6416" stroke="#F6F6F6" stroke-miterlimit="10"/>
<path d="M-57.9646 714.505C-46.0414 657.56 15.6098 602.589 96.1154 587.035C163.872 573.946 237.6 587.049 302.093 604.809C360.48 620.881 418.599 637.021 470.995 629.598C537.6 620.173 580.032 576.848 650.323 548.286C714.413 522.231 778.675 506.282 844.589 507.222C887.616 507.835 931.872 518.173 974.362 531.765C1086.76 567.722 1113.41 649.646 1210.58 664.887C1309.21 680.128 1374.91 654.931 1406.84 628.318C1443.97 597.386 1477.79 523.375 1406.67 461.445C1372.01 431.263 1337.07 396.614 1303.99 360.875C1261.4 314.88 1254.03 252.351 1293.97 209.816C1324.74 177.032 1378.43 155.022 1411.05 118.33C1436.43 89.7827 1447.57 57.7893 1447.09 27.8798C1446.55 -5.36665 1432.97 -37.8504 1407.78 -67.147" stroke="#F7F7F7" stroke-miterlimit="10"/>
<path d="M-55.0461 716.82C-40.6077 658.54 20.6978 601.663 103.123 585.006C171.226 571.236 246.029 584.012 310.522 602.862C368.16 619.696 424.474 637.511 476.717 632.526C543.034 626.207 588.826 586.531 659.04 558.393C724.282 532.242 787.68 513.161 854.65 512.071C899.136 511.335 945.389 520.897 989.434 534.585C1098.26 568.403 1127.37 645.833 1222 660.829C1317.04 675.661 1382.25 652.806 1415.23 626.71C1453.08 596.774 1485.04 525.814 1420.49 465.395C1387.89 434.873 1354.89 399.883 1322.36 364.376C1281.47 319.702 1273.04 259.978 1309.08 218.138C1337.51 185.136 1388.49 161.969 1420.97 125.821C1446.74 97.1513 1459.76 65.5529 1461.5 35.548C1463.46 1.68869 1452.25 -31.9663 1428.5 -62.6113" stroke="#F8F8F8" stroke-miterlimit="10"/>
<path d="M-52.1277 719.136C-35.1933 659.535 25.7859 600.737 110.132 582.963C178.599 568.539 254.458 580.947 318.951 600.887C375.86 618.484 430.349 637.961 482.42 635.427C548.448 632.213 597.6 596.202 667.719 568.485C734.093 542.253 796.628 519.998 864.692 516.892C910.618 514.795 958.887 523.621 1004.49 537.377C1109.68 569.125 1141.33 641.978 1233.39 656.756C1324.84 671.18 1389.52 650.654 1423.58 625.076C1462.12 596.134 1492.36 528.115 1434.28 469.304C1403.75 438.387 1372.65 403.097 1340.72 367.835C1301.49 324.496 1291.97 267.524 1324.17 226.419C1350.22 193.172 1398.53 168.888 1430.86 133.258C1456.99 104.479 1471.97 73.2618 1475.89 43.1616C1480.38 8.68934 1471.51 -26.1234 1449.18 -58.1304" stroke="#F8F8F8" stroke-miterlimit="10"/>
<path d="M-49.2095 721.437C-29.7791 660.501 30.8737 599.824 117.139 580.906C185.971 565.815 262.906 577.869 327.379 598.912C383.559 617.244 436.205 638.423 488.141 638.328C553.863 638.205 606.394 605.872 676.435 578.577C743.962 552.263 805.613 526.807 874.752 521.714C922.119 518.227 972.384 526.358 1019.56 540.169C1121.09 569.901 1155.3 638.124 1244.81 652.67C1332.65 666.685 1396.84 648.475 1431.97 623.428C1471.2 595.466 1499.85 530.294 1448.12 473.213C1419.71 441.86 1390.44 406.325 1359.11 371.294C1321.56 329.304 1310.88 275.028 1339.3 234.699C1362.91 201.181 1408.61 175.793 1440.81 140.694C1467.32 111.793 1484.26 80.9705 1490.32 50.7885C1497.39 15.7034 1490.82 -20.2806 1469.93 -53.636" stroke="#F9F9F9" stroke-miterlimit="10"/>
<path d="M-46.291 723.753C-24.3454 661.496 35.9618 598.926 124.147 578.877C193.344 563.146 271.354 574.791 335.808 596.951C391.277 616.019 442.08 638.887 493.843 641.243C559.277 644.212 615.187 615.556 685.114 588.67C753.792 562.274 814.541 533.591 884.794 526.535C933.581 521.646 985.843 529.123 1034.61 542.975C1132.45 570.746 1169.22 634.419 1256.22 648.598C1340.43 662.313 1404.12 646.31 1440.35 621.794C1480.22 594.799 1507.47 532.378 1461.93 477.122C1435.68 445.279 1408.22 409.553 1377.48 374.754C1341.58 334.112 1329.7 282.492 1354.41 242.994C1375.56 209.176 1418.67 182.726 1450.71 148.158C1477.61 119.148 1496.52 88.7206 1504.72 58.4297C1514.38 22.7317 1510.1 -14.4101 1490.63 -49.1274" stroke="#F9F9F9" stroke-miterlimit="10"/>
<path d="M-43.3726 726.068C-18.931 662.476 41.069 598.04 131.155 576.834C200.736 560.463 279.802 571.699 344.237 594.989C398.976 614.779 447.955 639.35 499.546 644.144C564.691 650.205 623.981 625.239 693.811 598.762C763.642 572.298 823.469 540.346 894.835 531.37C945.043 525.051 999.283 531.929 1049.66 545.78C1143.78 571.631 1183.18 630.592 1267.6 644.525C1348.22 657.832 1411.37 644.13 1448.7 620.159C1489.23 594.131 1515.25 534.367 1475.71 481.044C1451.71 448.656 1425.97 412.795 1395.84 378.227C1361.59 338.92 1348.42 289.942 1369.5 251.289C1388.12 217.143 1428.71 189.645 1460.62 155.608C1487.9 126.489 1508.83 96.4702 1519.12 66.0704C1531.41 29.7867 1529.38 -8.55363 1511.35 -44.6194" stroke="#FAFAFA" stroke-miterlimit="10"/>
<path d="M-40.4541 728.37C-13.5165 663.457 46.1763 597.155 138.163 574.777C208.128 557.766 288.269 568.566 352.666 593.014C406.714 613.526 453.831 639.785 505.267 647.045C570.125 656.197 632.794 634.923 702.509 608.854C773.492 582.323 832.378 547.088 904.896 536.192C956.506 528.442 1012.72 534.762 1064.76 548.572C1155.13 572.571 1197.18 626.737 1279.05 640.439C1356.08 653.337 1418.67 641.924 1457.11 618.511C1498.29 593.423 1523.27 536.26 1489.56 484.953C1467.9 451.993 1443.76 416.036 1414.23 381.686C1381.61 343.741 1367.1 297.351 1384.63 259.569C1400.64 225.07 1438.81 196.563 1470.55 163.044C1498.21 133.83 1521.18 104.206 1533.54 73.6837C1548.5 36.8143 1548.65 -2.71091 1532.06 -40.1387" stroke="#FBFBFB" stroke-miterlimit="10"/>
<path d="M-37.5359 730.686C-8.10229 664.438 51.3025 596.283 145.171 572.748C215.52 555.11 296.755 565.461 361.094 591.053C414.432 612.273 459.706 640.249 510.97 649.96C575.539 662.191 641.587 644.621 711.206 618.961C783.36 592.361 841.267 553.83 914.938 541.027C967.949 531.82 1026.14 537.636 1079.81 551.378C1166.42 573.552 1211.12 622.897 1290.43 636.367C1363.87 648.843 1425.89 639.731 1465.46 616.877C1507.28 592.729 1531.45 538.099 1503.34 488.862C1484.18 455.276 1461.48 419.264 1432.59 385.146C1401.6 348.549 1385.64 304.747 1399.72 267.851C1413.02 232.983 1448.87 203.483 1480.44 170.495C1508.51 141.171 1533.48 111.97 1547.94 81.3112C1565.59 43.8834 1567.93 3.14596 1552.76 -35.6438" stroke="#FBFBFB" stroke-miterlimit="10"/>
<path d="M-34.6174 733.001C-2.66863 665.418 56.429 595.425 152.199 570.705C222.931 552.454 305.261 562.342 369.543 589.092C422.208 611.006 465.6 640.698 516.711 652.874C581.011 668.183 650.419 654.332 719.923 629.053C793.248 602.399 850.176 560.531 925.018 545.848C979.392 535.17 1039.56 540.55 1094.9 554.17C1177.73 574.573 1225.11 619.042 1301.88 632.281C1371.72 644.334 1433.16 637.497 1473.87 615.229C1516.3 592.006 1539.9 539.883 1517.2 492.771C1500.69 458.517 1479.26 422.506 1451 388.605C1421.63 353.37 1404.13 312.143 1414.87 276.131C1425.37 240.896 1458.99 210.401 1490.4 177.931C1518.85 148.498 1545.89 119.733 1562.4 88.9381C1582.73 50.9519 1587.26 8.98872 1573.54 -31.1494" stroke="#FCFCFC" stroke-miterlimit="10"/>
<path d="M-31.699 735.316C2.74583 666.413 61.5554 594.581 159.207 568.676C230.323 549.798 313.767 559.21 377.971 587.131C429.946 609.74 471.514 641.093 522.413 655.789C586.483 674.095 659.213 664.043 728.621 639.159C803.117 612.45 859.027 567.259 935.059 550.684C990.797 538.535 1052.95 543.52 1109.95 556.99C1189 575.649 1239.11 615.106 1313.28 628.222C1379.56 639.759 1440.4 635.291 1482.24 613.608C1525.29 591.299 1548.54 541.681 1531.01 496.694C1517.4 461.759 1496.99 425.775 1469.38 392.079C1441.61 358.206 1422.51 319.552 1429.98 284.426C1437.56 248.824 1469.07 217.334 1500.31 185.382C1529.17 155.853 1558.25 127.524 1576.8 96.5656C1599.86 58.0482 1606.54 14.8456 1594.23 -26.6545" stroke="#FDFDFD" stroke-miterlimit="10"/>
<path d="M-28.7805 737.618C8.16028 667.38 66.7011 593.737 166.215 566.619C237.735 547.129 322.291 556.05 386.4 585.156C437.722 608.446 477.408 641.543 528.135 658.69C591.917 680.087 668.045 673.74 737.319 649.252C812.986 622.502 867.859 573.947 945.12 555.519C1002.22 541.899 1066.31 546.557 1125.02 559.796C1200.29 576.766 1253.09 611.266 1324.69 624.15C1387.37 635.278 1447.62 633.044 1490.61 611.974C1534.27 590.577 1557.43 543.506 1544.81 500.617C1534.33 465 1514.71 429.044 1487.73 395.552C1461.56 363.055 1440.75 327.002 1445.07 292.721C1449.6 256.764 1479.15 224.28 1510.21 192.832C1539.49 163.208 1570.62 135.328 1591.2 104.207C1616.99 65.1716 1625.8 20.7023 1614.93 -22.1462" stroke="#FDFDFD" stroke-miterlimit="10"/>
<path d="M-25.8623 739.934C13.5937 668.374 71.8465 592.906 173.222 564.576C245.146 544.487 330.816 552.89 394.829 583.181C445.478 607.152 483.283 641.992 533.837 661.578C597.351 686.066 676.915 683.533 746.016 659.33C822.931 632.649 876.691 580.62 955.162 560.327C1013.59 545.208 1079.65 549.635 1140.1 562.574C1211.58 577.869 1267.07 607.397 1336.11 620.05C1395.21 630.769 1454.86 630.769 1499 610.312C1543.28 589.8 1566.57 545.385 1558.64 504.498C1551.59 468.228 1532.41 432.271 1506.12 398.984C1481.55 367.862 1458.95 334.439 1460.2 300.975C1461.56 264.704 1489.34 231.213 1520.14 200.255C1549.9 170.577 1583.02 143.119 1605.62 111.806C1634.15 72.2675 1645.09 26.5316 1635.67 -17.679" stroke="#FEFEFE" stroke-miterlimit="10"/>
<path d="M-22.9438 742.249C19.0082 669.354 77.0498 592.184 180.231 562.533C252.595 541.912 339.36 549.73 403.258 581.219C453.274 605.872 489.159 642.469 539.539 664.492C602.765 692.086 685.69 693.203 754.695 669.423C832.762 642.659 885.466 587.308 965.203 565.148C1024.95 548.532 1092.96 552.808 1155.15 565.366C1222.87 579.04 1281.02 603.556 1347.51 615.964C1403.02 626.261 1462.06 628.481 1507.37 608.664C1552.24 589.024 1575.9 547.415 1572.46 508.407C1569.2 471.551 1550.09 435.54 1524.52 402.457C1501.52 372.711 1477.08 341.984 1475.33 309.269C1473.39 272.74 1499.42 238.145 1530.09 207.705C1560.23 177.904 1595.42 150.95 1620.06 119.433C1651.33 79.4042 1664.41 32.3743 1656.4 -13.1846" stroke="#FEFEFE" stroke-miterlimit="10"/>
<path d="M-20.0254 744.55C24.4226 670.321 82.1378 591.257 187.239 560.49C259.968 539.202 347.923 546.543 411.687 579.258C461.05 604.578 495.053 642.932 545.261 667.407C608.218 698.093 694.483 702.887 763.411 679.529C842.611 652.684 894.279 594.009 975.264 569.983C1036.34 551.868 1106.27 556.104 1170.22 568.185C1234.18 580.266 1295 599.729 1358.92 611.919C1410.84 621.807 1469.28 626.234 1515.74 607.057C1561.23 588.288 1585.42 549.676 1586.27 512.357C1587.11 475.038 1567.76 438.85 1542.87 405.957C1521.43 377.587 1495.08 349.625 1490.42 317.604C1485.06 280.885 1509.45 245.105 1539.97 215.196C1570.5 185.286 1607.79 158.822 1634.44 127.115C1668.48 86.6092 1683.67 38.2854 1677.1 -8.6355" stroke="white" stroke-miterlimit="10"/>
<path d="M741.197 1021.01C685.248 996.466 682.637 936.32 715.45 895.869C748.262 855.418 805.421 828.681 856.224 799.031C907.027 769.38 955.872 731.298 960.077 684.718C965.434 625.185 896.045 571.127 904.934 511.799C911.866 465.559 965.107 430.582 1021.06 411.051C1052.7 400.006 1089.25 396.138 1121.99 387.012C1270.48 345.648 1402.5 412.427 1495.03 358.11C1595.21 299.299 1590.11 233.474 1571.6 201.045C1547.88 159.504 1468.47 67.4733 1312.09 92.8338C1248.56 103.131 1183.37 111.888 1118.34 109.028C1020.94 104.751 926.227 50.4075 920.026 -18.6595C915.763 -65.989 950.381 -115.225 926.285 -159.477C910.099 -189.209 869.088 -209.789 825.35 -217.103C781.613 -224.417 735.475 -220.018 692.237 -211.314" stroke="white" stroke-miterlimit="10"/>
<path d="M745.574 1020.85C689.741 994.083 684.672 932.861 717.6 890.72C749.741 849.588 807.456 822.171 859.353 793.147C910.637 764.463 960.077 728.343 966.854 683.397C975.437 625.948 912.173 572.353 921.485 513.338C929.049 466.417 978.451 430.296 1032.65 408.545C1063.8 396.056 1100.66 390.281 1134.51 380.474C1277.99 338.893 1407.03 402.335 1497.7 349.285C1595.17 292.203 1592.43 228.067 1575.03 195.42C1553.01 154.042 1476.17 65.6482 1325.03 87.6717C1262.73 96.7563 1198.04 104.111 1133.64 101.06C1038.78 96.7018 946.905 44.7687 938.611 -21.8058C932.87 -67.8686 964.301 -116.438 940.704 -160.267C924.633 -190.285 885.235 -211.464 842.784 -220.263C799.949 -229.143 754.003 -226.991 710.189 -219.922" stroke="#FDFDFD" stroke-miterlimit="10"/>
<path d="M749.933 1020.68C694.195 991.699 686.688 929.415 719.731 885.559C751.238 843.759 809.453 815.647 862.464 787.25C914.208 759.519 964.262 725.374 973.613 682.049C985.421 626.697 928.109 573.524 937.997 514.836C946.042 467.22 991.776 429.902 1044.23 405.998C1074.89 392.024 1112.04 384.384 1146.99 373.882C1285.5 332.246 1411.53 392.188 1500.33 340.405C1595.1 285.053 1594.69 222.619 1578.45 189.74C1558.08 148.553 1483.81 63.7279 1337.95 82.469C1276.82 90.3278 1212.69 96.2933 1148.93 93.0518C1056.58 88.6116 967.507 39.0757 957.139 -24.9928C949.901 -69.8026 978.163 -117.69 955.046 -161.111C939.091 -191.402 901.267 -213.221 860.141 -223.477C818.17 -233.951 772.474 -234.005 728.045 -228.585" stroke="#FCFCFC" stroke-miterlimit="10"/>
<path d="M754.31 1020.52C698.688 989.33 688.762 925.969 721.901 880.411C752.794 837.943 811.488 809.137 865.594 781.352C917.798 754.562 968.467 722.405 980.39 680.714C995.443 627.46 944.16 574.723 954.547 516.362C963.149 468.051 1005.14 429.48 1055.85 403.479C1086.03 387.993 1123.47 378.527 1159.53 367.318C1293.14 325.75 1416.08 382.068 1503.01 331.552C1595.08 277.93 1597.02 217.198 1581.91 184.102C1563.19 143.105 1491.42 61.7805 1350.91 77.2936C1290.91 83.913 1227.4 88.3803 1164.25 85.0843C1074.43 80.3854 988.09 33.41 975.725 -28.1388C966.97 -71.6955 991.93 -118.862 969.446 -161.914C953.491 -192.464 917.357 -214.951 877.555 -226.65C836.448 -238.731 790.982 -240.992 745.977 -237.206" stroke="#FAFAFA" stroke-miterlimit="10"/>
<path d="M758.669 1020.36C703.143 986.946 690.816 922.551 724.032 875.262C754.311 832.141 813.447 802.613 868.704 775.468C921.331 749.604 972.653 719.449 987.168 679.379C1005.45 628.209 960.231 575.908 971.098 517.873C980.275 468.869 1018.48 429.003 1067.44 400.932C1097.15 383.907 1134.87 372.67 1172.04 360.726C1300.82 319.348 1420.63 371.921 1505.68 322.671C1595.04 270.766 1599.32 211.764 1585.36 178.422C1568.28 137.63 1498.94 59.7373 1363.89 72.0907C1305 77.4706 1242.12 80.5351 1179.59 77.0756C1092.29 72.2541 1008.67 27.6895 994.311 -31.326C984.019 -73.657 1005.81 -120.115 983.866 -162.759C968.007 -193.581 933.466 -216.762 894.989 -229.878C854.727 -243.594 809.511 -248.02 763.911 -245.882" stroke="#F9F9F9" stroke-miterlimit="10"/>
<path d="M763.047 1020.19C707.636 984.563 692.909 919.132 726.183 870.114C755.885 826.353 815.424 796.089 871.834 769.584C924.883 744.646 976.954 716.521 993.946 678.058C1015.58 629.012 976.32 577.12 987.648 519.399C997.402 469.699 1031.79 428.472 1079.06 398.412C1108.28 379.835 1146.32 366.841 1184.56 354.161C1308.56 313.083 1425.16 361.802 1508.37 313.818C1595.02 263.642 1601.63 206.357 1588.82 172.77C1573.36 132.182 1506.39 57.6534 1376.85 66.915C1319.02 71.0419 1256.81 72.7035 1194.91 69.0942C1110.13 64.1501 1029.18 21.9826 1012.9 -34.4723C1001.03 -75.5911 1019.69 -121.313 998.266 -163.563C982.503 -194.657 949.536 -218.547 912.404 -233.052C872.986 -248.443 828.039 -255.007 781.844 -254.503" stroke="#F7F7F7" stroke-miterlimit="10"/>
<path d="M767.405 1020.02C712.089 982.179 695.021 915.699 728.333 864.938C757.478 820.537 817.402 789.524 874.963 763.673C928.416 739.661 981.178 713.551 1000.72 676.696C1025.61 629.761 992.409 578.291 1004.18 520.897C1014.51 470.516 1045.08 427.886 1090.66 395.865C1119.36 375.694 1157.72 360.998 1197.08 347.582C1316.33 306.913 1429.69 351.668 1511.04 304.951C1594.98 256.505 1603.89 200.936 1592.28 167.117C1578.41 126.747 1513.79 55.4876 1389.81 61.7255C1333.02 64.5857 1271.5 64.8718 1210.25 61.099C1128 56.0324 1049.64 16.2484 1031.48 -37.646C1018.02 -77.5662 1033.57 -122.553 1012.68 -164.38C997.017 -195.747 965.645 -220.385 929.837 -236.239C891.264 -253.319 846.566 -261.995 799.776 -263.139" stroke="#F6F6F6" stroke-miterlimit="10"/>
<path d="M771.782 1019.85C716.582 979.795 697.152 912.295 730.483 859.79C759.072 814.762 819.341 782.987 878.074 757.776C931.93 734.663 985.382 710.596 1007.48 675.361C1035.61 630.524 1008.5 579.49 1020.71 522.409C1031.64 471.334 1058.3 427.273 1102.23 393.332C1130.42 371.554 1169.13 355.196 1209.58 341.004C1324.15 300.825 1434.2 341.535 1513.69 296.085C1594.94 249.369 1606.12 195.529 1595.69 161.451C1583.4 121.3 1519.35 42.0041 1402.73 56.5366C1347.71 63.3875 1286.17 57.0406 1225.54 53.1044C1145.8 47.9288 1070 10.501 1050.03 -40.8191C1034.96 -79.5544 1047.44 -123.779 1027.05 -165.211C1011.48 -196.863 981.696 -222.265 947.213 -239.44C909.485 -258.235 865.037 -269.009 817.67 -271.787" stroke="#F4F4F4" stroke-miterlimit="10"/>
<path d="M776.141 1019.69C721.056 977.412 699.264 908.904 732.614 854.641C760.685 808.987 821.28 776.422 881.184 751.892C935.424 729.678 989.568 707.654 1014.24 674.04C1045.61 631.314 1024.59 580.702 1037.24 523.948C1048.78 472.192 1071.51 426.66 1113.83 390.812C1141.48 367.4 1180.55 349.408 1222.08 334.439C1332 294.819 1438.71 331.416 1516.34 287.232C1594.89 242.245 1608.35 190.135 1599.13 155.813C1588.42 115.893 1526.86 38.7217 1415.67 51.3611C1361.49 57.5309 1300.84 49.2227 1240.84 45.1367C1163.64 39.8522 1090.33 4.75344 1068.61 -43.9653C1051.87 -81.5293 1061.34 -124.991 1041.47 -166.014C1025.99 -197.939 997.824 -224.131 964.646 -242.613C927.782 -263.152 883.584 -275.982 835.603 -280.422" stroke="#F2F2F2" stroke-miterlimit="10"/>
<path d="M780.518 1019.53C725.53 975.042 701.434 905.499 734.784 849.48C762.336 803.199 823.219 769.843 884.333 745.995C938.957 724.679 993.792 704.699 1021.04 672.692C1055.64 632.064 1040.74 581.901 1053.81 525.446C1065.95 472.995 1084.7 425.993 1125.47 388.265C1152.54 363.218 1192.01 343.619 1234.64 327.847C1339.97 288.867 1443.28 321.269 1519.05 278.352C1594.89 235.095 1610.61 184.728 1602.6 150.133C1593.43 110.445 1534.46 35.4938 1428.65 46.1583C1375.2 51.5518 1315.56 41.3913 1256.18 37.1282C1181.47 31.7619 1110.57 -0.994171 1087.18 -47.1387C1068.73 -83.5314 1075.22 -126.23 1055.85 -166.845C1040.49 -199.043 1013.93 -226.051 982.061 -245.814C946.08 -268.11 902.093 -282.996 853.517 -289.071" stroke="#F1F1F1" stroke-miterlimit="10"/>
<path d="M784.877 1019.36C730.003 972.659 703.603 902.121 736.915 844.331C763.949 797.437 825.12 763.278 887.424 740.111C942.413 719.667 997.958 701.743 1027.8 671.371C1065.62 632.853 1056.84 583.113 1070.34 526.971C1083.11 473.84 1097.84 425.325 1137.04 385.746C1163.52 359.037 1203.44 337.885 1247.14 321.282C1347.92 283.01 1447.8 311.149 1521.72 269.499C1594.85 227.972 1612.82 179.348 1606.06 144.481C1598.4 105.037 1542.12 32.4155 1441.61 40.9825C1388.77 45.4771 1330.25 33.5869 1271.5 29.1467C1199.31 23.6851 1130.75 -6.74196 1105.75 -50.2987C1085.53 -85.5337 1089.12 -127.456 1070.23 -167.662C1054.98 -200.146 1030.06 -227.972 999.456 -249.001C964.397 -273.081 920.582 -289.997 871.43 -297.706" stroke="#EFEFEF" stroke-miterlimit="10"/>
<path d="M789.254 1019.2C734.477 970.275 705.792 898.729 739.066 839.182C765.619 791.676 827.04 756.686 890.554 734.227C945.907 714.655 1002.14 698.801 1034.57 670.035C1075.62 633.616 1072.99 584.311 1086.87 528.497C1100.26 474.67 1110.91 424.644 1148.64 383.226C1174.48 354.855 1214.9 332.164 1259.64 314.731C1355.9 277.221 1452.31 301.043 1524.36 260.659C1594.79 220.862 1615.01 173.982 1609.5 138.856C1603.35 99.6572 1549.69 42.9707 1454.55 35.8202C1402.29 31.8841 1344.94 25.7959 1286.8 21.1787C1217.13 15.6354 1150.81 -12.4627 1124.31 -53.4316C1102.29 -87.4952 1103 -128.655 1084.63 -168.439C1069.48 -201.195 1046.23 -229.879 1016.87 -252.147C982.733 -278.039 939.11 -296.944 889.344 -306.301" stroke="#EEEEEE" stroke-miterlimit="10"/>
<path d="M793.613 1019.02C738.95 967.892 708 895.338 741.216 834.021C767.29 785.901 828.941 750.081 893.683 728.316C949.383 709.602 1006.35 695.832 1041.35 668.687C1085.61 634.365 1089.14 585.497 1103.42 529.995C1117.44 475.488 1123.99 423.922 1160.26 380.665C1185.45 350.62 1226.4 326.417 1272.17 308.125C1363.97 271.433 1456.97 290.991 1527.05 251.766C1594.89 213.793 1617.2 168.561 1612.95 133.163C1608.29 94.1959 1556.77 40.0292 1467.51 30.6041C1416.08 25.1698 1359.63 17.9648 1302.14 13.1569C1234.98 7.54549 1170.84 -18.2236 1142.9 -56.6319C1119 -89.5106 1116.92 -129.921 1099.03 -169.297C1084.01 -202.339 1062.43 -231.867 1034.28 -255.375C1001.13 -283.078 957.619 -303.985 907.277 -314.976" stroke="#ECECEC" stroke-miterlimit="10"/>
<path d="M797.991 1018.86C743.424 965.508 710.227 891.96 743.367 828.859C768.96 780.126 830.842 743.448 896.813 722.418C952.858 704.549 1010.53 692.863 1048.13 667.339C1095.61 635.114 1105.31 586.695 1119.97 531.507C1134.64 476.318 1137.02 423.214 1171.87 378.132C1196.39 346.411 1237.92 320.737 1284.71 301.547C1372.09 265.712 1461.54 280.858 1529.74 242.913C1594.87 206.67 1619.37 163.181 1616.43 127.51C1613.22 88.7886 1563.86 36.9645 1480.49 25.4148C1429.88 18.4005 1374.34 10.1603 1317.49 5.16181C1252.84 -0.51773 1190.77 -23.9305 1161.5 -59.8056C1135.64 -91.4993 1130.88 -131.161 1113.47 -170.128C1098.57 -203.456 1078.69 -233.828 1051.74 -258.576C1019.58 -288.104 976.167 -310.986 925.229 -323.625" stroke="#EBEBEB" stroke-miterlimit="10"/>
<path d="M802.349 1018.69C747.898 963.125 712.455 888.582 745.498 823.71C770.631 774.379 832.723 736.828 899.904 716.534C956.295 699.496 1014.68 689.907 1054.87 666.018C1105.56 635.89 1121.43 587.907 1136.49 533.032C1151.81 477.149 1149.98 422.533 1183.43 375.612C1207.24 342.216 1249.42 315.099 1297.17 294.982C1380.15 260.046 1466.02 270.738 1532.35 234.059C1594.77 199.546 1621.46 157.801 1619.81 121.872C1618.04 83.395 1570.89 33.7637 1493.4 20.2527C1443.61 11.5768 1388.97 2.39688 1332.75 -2.79234C1270.62 -8.52636 1210.56 -29.5692 1180.03 -62.9382C1152.15 -93.4062 1144.74 -132.373 1127.81 -170.918C1113.04 -204.518 1094.88 -235.762 1069.09 -261.736C1037.95 -293.103 994.618 -317.959 943.104 -332.233" stroke="#E9E9E9" stroke-miterlimit="10"/>
<path d="M806.726 1018.53C752.39 960.741 714.701 885.204 747.667 818.562C772.358 768.617 834.624 730.195 903.053 710.65C959.789 694.443 1018.89 686.952 1061.68 664.683C1115.58 636.639 1137.64 589.119 1153.06 534.544C1169.03 477.98 1162.98 421.825 1195.07 373.079C1218.16 338.007 1261.02 309.473 1309.73 288.403C1388.35 254.408 1470.59 260.605 1535.08 225.193C1594.79 192.409 1623.63 152.407 1623.32 116.205C1623 77.9605 1578.11 30.3722 1506.41 15.0633C1457.49 4.61681 1403.73 -5.39391 1348.13 -10.7874C1288.51 -16.5759 1230.37 -35.1945 1198.66 -66.0983C1168.68 -95.2995 1158.72 -133.599 1142.25 -171.735C1127.62 -205.622 1111.18 -237.738 1086.55 -264.923C1056.46 -298.129 1013.18 -324.946 961.056 -340.868" stroke="#E7E7E7" stroke-miterlimit="10"/>
<path d="M811.104 1018.37C756.864 958.371 716.986 881.84 749.818 813.4C774.067 762.856 836.525 723.522 906.183 704.753C963.245 689.363 1023.07 683.983 1068.46 663.348C1125.56 637.389 1153.82 590.332 1169.61 536.069C1186.25 478.838 1175.92 421.13 1206.68 370.546C1229.03 333.799 1272.63 303.889 1322.27 281.839C1396.57 248.824 1475.12 250.472 1537.77 216.34C1594.77 185.273 1625.76 147.014 1626.78 110.553C1627.85 72.54 1585.36 26.8449 1519.37 9.87441C1471.39 -2.46531 1418.42 -13.1706 1363.45 -18.7821C1306.33 -24.6114 1250.07 -40.7784 1217.24 -69.2714C1185.1 -97.1516 1172.66 -134.852 1156.67 -172.552C1142.17 -206.724 1127.5 -239.698 1103.98 -268.11C1074.99 -303.154 1031.71 -331.947 979.008 -349.503" stroke="#E6E6E6" stroke-miterlimit="10"/>
<path d="M815.462 1018.2C761.337 955.988 719.251 878.477 751.949 808.252C775.776 757.109 838.387 716.862 909.293 698.856C966.701 684.283 1027.18 680.932 1075.22 662C1135.47 638.043 1169.99 591.53 1186.14 537.568C1203.46 479.656 1188.83 420.422 1218.26 367.999C1239.84 329.563 1284.25 298.333 1334.75 275.247C1404.79 243.226 1479.51 240.243 1540.4 207.46C1594.6 178.041 1627.79 141.607 1630.19 104.888C1632.65 67.1059 1592.72 23.1678 1532.29 4.68546C1485.37 -9.67002 1433.07 -20.9338 1378.73 -26.7767C1324.13 -32.647 1269.68 -46.2942 1235.77 -72.4446C1201.4 -98.9355 1186.56 -136.091 1171.01 -173.382C1156.65 -207.841 1143.74 -241.673 1121.34 -271.31C1093.46 -308.193 1050.16 -338.947 996.864 -358.151" stroke="#E4E4E4" stroke-miterlimit="10"/>
<path d="M819.84 1018.04C765.811 953.604 721.555 875.112 754.119 803.103C777.523 751.347 840.288 710.187 912.423 692.971C970.157 679.188 1031.39 677.976 1082 660.678C1145.47 638.818 1186.2 592.756 1202.69 539.106C1220.7 480.513 1201.73 419.754 1229.88 365.492C1250.67 325.381 1295.96 292.87 1347.28 268.695C1413.08 237.709 1484.06 230.137 1543.08 198.62C1594.58 170.931 1629.87 136.227 1633.65 99.2485C1637.49 61.6981 1600.28 19.408 1545.25 -0.490791C1499.56 -17.0119 1447.74 -28.6842 1394.07 -34.7587C1341.96 -40.6562 1289.32 -51.7292 1254.37 -75.5915C1217.72 -100.625 1200.52 -137.317 1185.45 -174.187C1171.24 -208.931 1160.12 -243.608 1138.79 -274.484C1112.06 -313.206 1068.73 -345.935 1014.84 -366.773" stroke="#E3E3E3" stroke-miterlimit="10"/>
<path d="M824.199 1017.86C770.285 951.221 723.859 871.734 756.25 797.941C779.232 745.586 842.151 703.486 915.533 687.074C973.613 674.081 1035.57 675.021 1088.76 659.33C1155.46 639.554 1202.52 593.968 1219.2 540.605C1238.07 481.372 1214.59 419.046 1241.45 362.946C1261.46 321.173 1307.69 287.423 1359.78 262.103C1421.38 232.166 1488.58 219.99 1545.73 189.74C1594.52 163.78 1631.9 130.793 1637.09 93.5829C1642.29 56.2504 1608.1 15.5402 1558.21 -5.69334C1513.94 -24.5298 1462.43 -36.4473 1409.4 -42.7533C1359.8 -48.6644 1308.92 -57.1088 1272.94 -78.7646C1233.95 -102.232 1214.55 -138.584 1199.83 -175.017C1185.85 -210.075 1176.44 -245.569 1156.2 -277.685C1130.63 -318.231 1087.24 -352.935 1032.75 -375.422" stroke="#E1E1E1" stroke-miterlimit="10"/>
<path d="M828.576 1017.7C774.759 948.837 726.336 868.398 758.4 792.78C781.075 739.852 844.013 696.772 918.663 681.177C977.069 668.974 1039.78 672.052 1095.55 657.996C1165.48 640.317 1218.66 595.181 1235.77 542.117C1255.28 482.189 1227.48 418.366 1253.07 360.399C1272.25 316.951 1319.56 282.043 1372.3 255.525C1429.75 226.651 1493.13 209.857 1548.4 180.874C1594.5 156.644 1633.92 125.372 1640.52 87.9172C1647.07 50.8027 1616.16 11.6452 1571.14 -10.8823C1528.59 -32.1703 1477.06 -44.1696 1424.68 -50.748C1377.58 -56.6591 1328.51 -62.4067 1291.49 -81.9378C1250.13 -103.743 1228.44 -139.823 1214.19 -175.848C1200.33 -211.178 1192.76 -247.53 1173.58 -280.885C1149.2 -323.257 1105.71 -359.949 1050.64 -384.07" stroke="#E0E0E0" stroke-miterlimit="10"/>
<path d="M832.935 1017.54C779.232 946.454 728.506 865.006 760.551 787.631C782.727 734.077 845.895 690.057 921.773 675.28C980.525 663.839 1043.96 669.083 1102.31 656.647C1175.46 641.066 1234.79 596.365 1252.3 543.629C1272.42 483.02 1240.32 417.685 1264.67 357.866C1283.02 312.756 1331.48 276.745 1384.82 248.946C1438.16 221.148 1497.66 199.724 1551.09 172.007C1594.48 149.507 1635.96 119.951 1644 82.2512C1651.87 45.3409 1624.61 7.77698 1584.12 -16.0716C1543.64 -39.9203 1491.74 -51.8922 1440.02 -58.7431C1395.42 -64.6542 1348.19 -67.6233 1310.07 -85.0978C1266.37 -105.146 1242.34 -141.035 1228.61 -176.651C1214.88 -212.268 1209.16 -249.464 1191.01 -284.059C1167.84 -328.256 1124.26 -366.923 1068.58 -392.692" stroke="#DEDEDE" stroke-miterlimit="10"/>
</g>
</g>
</svg>
