<svg width="59" height="21" viewBox="0 0 59 21" fill="none" xmlns="http://www.w3.org/2000/svg">
<g opacity="0.25">
<g clip-path="url(#clip0_0_139)">
<path d="M45.9055 5.13489C45.8229 5.21736 45.7573 5.31531 45.7126 5.42314C45.6679 5.53097 45.6448 5.64657 45.6448 5.76331C45.6448 5.88005 45.6679 5.99565 45.7126 6.10348C45.7573 6.21131 45.8229 6.30927 45.9055 6.39173L49.364 9.85026L45.9055 13.3088C45.7389 13.4755 45.6452 13.7015 45.6452 13.9372C45.6452 14.1729 45.7389 14.399 45.9055 14.5656C46.0722 14.7323 46.2982 14.8259 46.5339 14.8259C46.7696 14.8259 46.9957 14.7323 47.1624 14.5656L51.2538 10.4742C51.3364 10.3918 51.402 10.2938 51.4467 10.186C51.4914 10.0781 51.5144 9.96255 51.5144 9.8458C51.5144 9.72906 51.4914 9.61347 51.4467 9.50563C51.402 9.3978 51.3364 9.29985 51.2538 9.21739L47.1624 5.12598C46.8236 4.78726 46.2532 4.78726 45.9055 5.13489Z" fill="white"/>
</g>
<rect x="38.1346" y="20.0191" width="19.4914" height="20.3374" rx="9.61033" transform="rotate(-90 38.1346 20.0191)" stroke="white" stroke-width="1.05556"/>
</g>
<g clip-path="url(#clip1_0_139)">
<path d="M13.0945 15.4119C13.1771 15.3295 13.2427 15.2315 13.2874 15.1237C13.3321 15.0159 13.3552 14.9003 13.3552 14.7835C13.3552 14.6668 13.3321 14.5512 13.2874 14.4434C13.2427 14.3355 13.1771 14.2376 13.0945 14.1551L9.63595 10.6966L13.0945 7.23804C13.2611 7.07138 13.3548 6.84533 13.3548 6.60963C13.3548 6.37392 13.2611 6.14787 13.0945 5.98121C12.9278 5.81454 12.7018 5.72091 12.4661 5.72091C12.2304 5.72091 12.0043 5.81454 11.8376 5.98121L7.74624 10.0726C7.6636 10.1551 7.59805 10.253 7.55332 10.3609C7.50859 10.4687 7.48556 10.5843 7.48556 10.701C7.48556 10.8178 7.50859 10.9334 7.55332 11.0412C7.59805 11.149 7.6636 11.247 7.74624 11.3294L11.8376 15.4209C12.1764 15.7596 12.7468 15.7596 13.0945 15.4119Z" fill="#845F38"/>
</g>
<rect x="20.8654" y="0.527778" width="19.4914" height="20.3374" rx="9.61033" transform="rotate(90 20.8654 0.527778)" stroke="#845F38" stroke-width="1.05556"/>
<defs>
<clipPath id="clip0_0_139">
<rect x="37.6068" y="20.5468" width="20.5469" height="21.393" rx="10.1381" transform="rotate(-90 37.6068 20.5468)" fill="white"/>
</clipPath>
<clipPath id="clip1_0_139">
<rect x="21.3932" width="20.5469" height="21.393" rx="10.1381" transform="rotate(90 21.3932 0)" fill="white"/>
</clipPath>
</defs>
</svg>
