<svg width="417" height="200" viewBox="0 0 417 200" fill="none" xmlns="http://www.w3.org/2000/svg">
<rect x="91.5" y="74.5" width="51" height="51" rx="25.5" stroke="white"/>
<g clip-path="url(#clip0_162_11945)">
<path d="M129 100C129 93.3726 123.627 88 117 88C110.373 88 105 93.3726 105 100C105 105.989 109.388 110.954 115.125 111.854V103.469H112.078V100H115.125V97.3562C115.125 94.3488 116.917 92.6875 119.658 92.6875C120.97 92.6875 122.344 92.9219 122.344 92.9219V95.875H120.831C119.34 95.875 118.875 96.8001 118.875 97.75V100H122.203L121.671 103.469H118.875V111.854C124.612 110.954 129 105.989 129 100Z" fill="white"/>
</g>
<rect x="183.5" y="74.5" width="51" height="51" rx="25.5" stroke="white"/>
<g clip-path="url(#clip1_162_11945)">
<path d="M204.55 109.75C213.605 109.75 218.558 102.247 218.558 95.7421C218.558 95.5312 218.554 95.3155 218.544 95.1046C219.508 94.4077 220.339 93.5445 221 92.5555C220.103 92.9548 219.15 93.2156 218.174 93.329C219.201 92.7132 219.971 91.7457 220.339 90.606C219.373 91.1788 218.316 91.5829 217.213 91.8009C216.471 91.0118 215.489 90.4894 214.42 90.3143C213.35 90.1392 212.253 90.3213 211.298 90.8323C210.342 91.3434 209.582 92.1549 209.134 93.1416C208.686 94.1282 208.575 95.2349 208.82 96.2905C206.862 96.1923 204.948 95.6839 203.2 94.7983C201.452 93.9127 199.91 92.6697 198.673 91.1498C198.044 92.2335 197.852 93.5159 198.135 94.7363C198.418 95.9568 199.155 97.0237 200.196 97.7202C199.415 97.6954 198.65 97.4849 197.966 97.1062V97.1671C197.965 98.3044 198.358 99.4068 199.078 100.287C199.799 101.167 200.801 101.771 201.916 101.995C201.192 102.193 200.432 102.222 199.695 102.08C200.009 103.058 200.622 103.913 201.446 104.527C202.27 105.14 203.265 105.481 204.292 105.501C202.548 106.871 200.394 107.614 198.177 107.611C197.783 107.61 197.39 107.586 197 107.539C199.253 108.984 201.874 109.752 204.55 109.75Z" fill="white"/>
</g>
<rect x="275.5" y="74.5" width="51" height="51" rx="25.5" stroke="white"/>
<g clip-path="url(#clip2_162_11945)">
<path d="M311.223 88H290.772C289.792 88 289 88.7734 289 89.7297V110.266C289 111.222 289.792 112 290.772 112H311.223C312.203 112 313 111.222 313 110.27V89.7297C313 88.7734 312.203 88 311.223 88ZM296.12 108.452H292.558V96.9953H296.12V108.452ZM294.339 95.4344C293.195 95.4344 292.272 94.5109 292.272 93.3719C292.272 92.2328 293.195 91.3094 294.339 91.3094C295.478 91.3094 296.402 92.2328 296.402 93.3719C296.402 94.5062 295.478 95.4344 294.339 95.4344ZM309.452 108.452H305.894V102.883C305.894 101.556 305.87 99.8453 304.042 99.8453C302.191 99.8453 301.909 101.294 301.909 102.789V108.452H298.356V96.9953H301.769V98.5609H301.816C302.289 97.6609 303.452 96.7094 305.181 96.7094C308.786 96.7094 309.452 99.0813 309.452 102.166V108.452Z" fill="white"/>
</g>
<line x1="0.5" y1="200" x2="0.5" stroke="white"/>
<line x1="416.5" y1="200" x2="416.5" stroke="white"/>
<defs>
<clipPath id="clip0_162_11945">
<rect width="24" height="24" fill="white" transform="translate(105 88)"/>
</clipPath>
<clipPath id="clip1_162_11945">
<rect width="24" height="24" fill="white" transform="translate(197 88)"/>
</clipPath>
<clipPath id="clip2_162_11945">
<rect width="24" height="24" fill="white" transform="translate(289 88)"/>
</clipPath>
</defs>
</svg>
